solid OpenSCAD_Model
  facet normal -0.165922 0.976788 0.135482
    outer loop
      vertex 29.4822 -9 1.26071
      vertex 51.7346 -12.2733 52.1125
      vertex 51.8104 -12.2555 52.0772
    endloop
  endfacet
  facet normal -0.165913 0.97679 0.135477
    outer loop
      vertex 27.0815 -9.23292 0
      vertex 29.4822 -9 1.26071
      vertex 28.4528 -9 0
    endloop
  endfacet
  facet normal -0.165913 0.97679 0.135478
    outer loop
      vertex 29.4822 -9 1.26071
      vertex 27.0815 -9.23292 0
      vertex 51.7346 -12.2733 52.1125
    endloop
  endfacet
  facet normal 0.88301 0.308593 -0.353643
    outer loop
      vertex 39.6492 -2.64716 57.748
      vertex 16.253 -1.87975 0
      vertex 39.6252 -2.56582 57.7592
    endloop
  endfacet
  facet normal 0.883012 0.308588 -0.353644
    outer loop
      vertex 16.253 -1.87975 0
      vertex 39.6492 -2.64716 57.748
      vertex 16.8696 -3.64397 0
    endloop
  endfacet
  facet normal 0.210429 -0.97679 -0.0400133
    outer loop
      vertex 24.9456 9.18531 0
      vertex 49.3205 12.2555 53.2382
      vertex 23.0318 8.77304 0
    endloop
  endfacet
  facet normal 0.210427 -0.97679 -0.0400124
    outer loop
      vertex 49.3205 12.2555 53.2382
      vertex 24.9456 9.18531 0
      vertex 49.3963 12.2733 53.2029
    endloop
  endfacet
  facet normal -0.650326 0.668201 0.361363
    outer loop
      vertex 57.325 -9 47.5477
      vertex 58 -9.1668 49.0709
      vertex 58 -9.09349 48.9354
    endloop
  endfacet
  facet normal -0.650329 0.668198 0.361364
    outer loop
      vertex 58 -9.1668 49.0709
      vertex 57.325 -9 47.5477
      vertex 56.0752 -9 45.2985
    endloop
  endfacet
  facet normal -0.345866 0.912274 0.219391
    outer loop
      vertex 39.7456 -9 17.1593
      vertex 56.087 -10.7223 50.083
      vertex 56.1578 -10.6875 50.0499
    endloop
  endfacet
  facet normal -0.345859 0.912278 0.219388
    outer loop
      vertex 56.087 -10.7223 50.083
      vertex 39.7456 -9 17.1593
      vertex 32.4949 -9 5.72871
    endloop
  endfacet
  facet normal -0.509718 0.807894 0.295794
    outer loop
      vertex 58 -9.1668 49.0709
      vertex 56.2205 -10.6373 50.0207
      vertex 58 -9.21073 49.1909
    endloop
  endfacet
  facet normal -0.509717 0.807894 0.295796
    outer loop
      vertex 56.0752 -9 45.2985
      vertex 56.2205 -10.6373 50.0207
      vertex 58 -9.1668 49.0709
    endloop
  endfacet
  facet normal -0.509717 0.807894 0.295796
    outer loop
      vertex 56.2205 -10.6373 50.0207
      vertex 56.0752 -9 45.2985
      vertex 45.0999 -9 26.3858
    endloop
  endfacet
  facet normal -0.650325 0.668202 0.361363
    outer loop
      vertex 58 -9.09349 48.9354
      vertex 58 -9 48.7625
      vertex 57.325 -9 47.5477
    endloop
  endfacet
  facet normal 0.554246 0.807884 -0.200338
    outer loop
      vertex 20.9646 -7.92126 0
      vertex 44.9104 -10.6373 55.2947
      vertex 44.9731 -10.6875 55.2654
    endloop
  endfacet
  facet normal 0.554233 0.807894 -0.200332
    outer loop
      vertex 44.9104 -10.6373 55.2947
      vertex 20.9646 -7.92126 0
      vertex 19.3581 -6.81913 0
    endloop
  endfacet
  facet normal 0.390374 0.912278 -0.123923
    outer loop
      vertex 22.8775 -8.73979 0
      vertex 45.0439 -10.7223 55.2324
      vertex 47.1092 -11.7369 54.2694
    endloop
  endfacet
  facet normal 0.390372 0.912279 -0.123923
    outer loop
      vertex 45.0439 -10.7223 55.2324
      vertex 22.8775 -8.73979 0
      vertex 22.7382 -8.6802 0
    endloop
  endfacet
  facet normal -0.345858 0.912278 0.219388
    outer loop
      vertex 32.4949 -9 5.72871
      vertex 54.0217 -11.7369 51.046
      vertex 56.087 -10.7223 50.083
    endloop
  endfacet
  facet normal -0.34586 0.912277 0.219388
    outer loop
      vertex 54.0217 -11.7369 51.046
      vertex 32.4949 -9 5.72871
      vertex 30.2819 -9 2.24004
    endloop
  endfacet
  facet normal -0.165913 0.97679 0.135478
    outer loop
      vertex 30.2819 -9 2.24004
      vertex 51.8104 -12.2555 52.0772
      vertex 54.0217 -11.7369 51.046
    endloop
  endfacet
  facet normal -0.165913 0.97679 0.135477
    outer loop
      vertex 51.8104 -12.2555 52.0772
      vertex 30.2819 -9 2.24004
      vertex 29.4822 -9 1.26071
    endloop
  endfacet
  facet normal -0.509721 0.807891 0.295798
    outer loop
      vertex 45.0999 -9 26.3858
      vertex 56.1578 -10.6875 50.0499
      vertex 56.2205 -10.6373 50.0207
    endloop
  endfacet
  facet normal -0.509718 0.807894 0.295797
    outer loop
      vertex 56.1578 -10.6875 50.0499
      vertex 45.0999 -9 26.3858
      vertex 39.7456 -9 17.1593
    endloop
  endfacet
  facet normal 0.0222579 0.998612 0.0477321
    outer loop
      vertex 27.0815 -9.23292 0
      vertex 49.3963 -12.2733 53.2029
      vertex 51.7346 -12.2733 52.1125
    endloop
  endfacet
  facet normal 0.0222576 0.998612 0.0477322
    outer loop
      vertex 49.3963 -12.2733 53.2029
      vertex 27.0815 -9.23292 0
      vertex 24.9456 -9.18531 0
    endloop
  endfacet
  facet normal 0.806054 0.499307 -0.317758
    outer loop
      vertex 41.5169 -7.2538 56.8771
      vertex 17.8759 -5.28551 0
      vertex 40.3865 -5.09356 57.4042
    endloop
  endfacet
  facet normal 0.806059 0.499296 -0.31776
    outer loop
      vertex 17.8759 -5.28551 0
      vertex 41.5169 -7.2538 56.8771
      vertex 17.9071 -5.33601 0
    endloop
  endfacet
  facet normal 0.806059 -0.499296 -0.31776
    outer loop
      vertex 41.5169 7.2538 56.8771
      vertex 17.8759 5.28551 0
      vertex 17.9071 5.33601 0
    endloop
  endfacet
  facet normal 0.806054 -0.499307 -0.317758
    outer loop
      vertex 17.8759 5.28551 0
      vertex 41.5169 7.2538 56.8771
      vertex 40.3865 5.09356 57.4042
    endloop
  endfacet
  facet normal -0.345858 -0.912278 0.219388
    outer loop
      vertex 54.0217 11.7369 51.046
      vertex 32.4949 9 5.72871
      vertex 56.087 10.7223 50.083
    endloop
  endfacet
  facet normal -0.34586 -0.912277 0.219388
    outer loop
      vertex 32.4949 9 5.72871
      vertex 54.0217 11.7369 51.046
      vertex 30.2819 9 2.24004
    endloop
  endfacet
  facet normal 0.0222576 -0.998612 0.0477322
    outer loop
      vertex 27.0815 9.23292 0
      vertex 49.3963 12.2733 53.2029
      vertex 24.9456 9.18531 0
    endloop
  endfacet
  facet normal 0.0222579 -0.998612 0.0477321
    outer loop
      vertex 49.3963 12.2733 53.2029
      vertex 27.0815 9.23292 0
      vertex 51.7346 12.2733 52.1125
    endloop
  endfacet
  facet normal 0.806059 0.499297 -0.31776
    outer loop
      vertex 40.3865 -5.09356 57.4042
      vertex 16.8832 -3.68309 0
      vertex 40.3478 -5.0195 57.4223
    endloop
  endfacet
  facet normal 0.806054 0.499306 -0.317758
    outer loop
      vertex 16.8832 -3.68309 0
      vertex 40.3865 -5.09356 57.4042
      vertex 17.8759 -5.28551 0
    endloop
  endfacet
  facet normal 0.883012 0.308588 -0.353644
    outer loop
      vertex 40.3478 -5.0195 57.4223
      vertex 16.8696 -3.64397 0
      vertex 39.6492 -2.64716 57.748
    endloop
  endfacet
  facet normal 0.883009 0.308597 -0.353643
    outer loop
      vertex 16.8696 -3.64397 0
      vertex 40.3478 -5.0195 57.4223
      vertex 16.8832 -3.68309 0
    endloop
  endfacet
  facet normal 0.210428 0.97679 -0.0400132
    outer loop
      vertex 23.0318 -8.77304 0
      vertex 47.1092 -11.7369 54.2694
      vertex 49.3205 -12.2555 53.2382
    endloop
  endfacet
  facet normal 0.210429 0.97679 -0.0400133
    outer loop
      vertex 47.1092 -11.7369 54.2694
      vertex 23.0318 -8.77304 0
      vertex 22.8775 -8.73979 0
    endloop
  endfacet
  facet normal 0.210427 0.97679 -0.0400124
    outer loop
      vertex 24.9456 -9.18531 0
      vertex 49.3205 -12.2555 53.2382
      vertex 49.3963 -12.2733 53.2029
    endloop
  endfacet
  facet normal 0.210429 0.97679 -0.0400133
    outer loop
      vertex 49.3205 -12.2555 53.2382
      vertex 24.9456 -9.18531 0
      vertex 23.0318 -8.77304 0
    endloop
  endfacet
  facet normal 0.390375 0.912277 -0.123924
    outer loop
      vertex 22.7382 -8.6802 0
      vertex 44.9731 -10.6875 55.2654
      vertex 45.0439 -10.7223 55.2324
    endloop
  endfacet
  facet normal 0.390375 0.912277 -0.123924
    outer loop
      vertex 44.9731 -10.6875 55.2654
      vertex 22.7382 -8.6802 0
      vertex 20.9646 -7.92126 0
    endloop
  endfacet
  facet normal 0.554233 0.807894 -0.200332
    outer loop
      vertex 19.3581 -6.81913 0
      vertex 43.0815 -9.17108 56.1475
      vertex 44.9104 -10.6373 55.2947
    endloop
  endfacet
  facet normal 0.554237 0.807891 -0.200334
    outer loop
      vertex 43.0815 -9.17108 56.1475
      vertex 19.3581 -6.81913 0
      vertex 19.2855 -6.76935 0
    endloop
  endfacet
  facet normal 0.922352 0.10436 -0.371989
    outer loop
      vertex 39.3808 0 57.8732
      vertex 16.0433 -0.0270225 0
      vertex 16.0403 0 0
    endloop
  endfacet
  facet normal 0.92235 0.104383 -0.371988
    outer loop
      vertex 16.0433 -0.0270225 0
      vertex 39.3808 0 57.8732
      vertex 39.6171 -2.48076 57.763
    endloop
  endfacet
  facet normal 0.554233 -0.807894 -0.200332
    outer loop
      vertex 20.9646 7.92126 0
      vertex 44.9104 10.6373 55.2947
      vertex 19.3581 6.81913 0
    endloop
  endfacet
  facet normal 0.554246 -0.807884 -0.200338
    outer loop
      vertex 44.9104 10.6373 55.2947
      vertex 20.9646 7.92126 0
      vertex 44.9731 10.6875 55.2654
    endloop
  endfacet
  facet normal 0.694841 -0.668202 -0.265899
    outer loop
      vertex 17.9071 5.33601 0
      vertex 43.0296 9.10753 56.1717
      vertex 41.5169 7.2538 56.8771
    endloop
  endfacet
  facet normal 0.694841 -0.668202 -0.265899
    outer loop
      vertex 43.0296 9.10753 56.1717
      vertex 17.9071 5.33601 0
      vertex 17.9499 5.38047 0
    endloop
  endfacet
  facet normal 0.390375 -0.912278 -0.123924
    outer loop
      vertex 22.7382 8.6802 0
      vertex 44.9731 10.6875 55.2654
      vertex 20.9646 7.92126 0
    endloop
  endfacet
  facet normal 0.390375 -0.912277 -0.123924
    outer loop
      vertex 44.9731 10.6875 55.2654
      vertex 22.7382 8.6802 0
      vertex 45.0439 10.7223 55.2324
    endloop
  endfacet
  facet normal -0.650325 -0.668202 0.361363
    outer loop
      vertex 58 9 48.7625
      vertex 58 9.09349 48.9354
      vertex 57.325 9 47.5477
    endloop
  endfacet
  facet normal -0.165913 -0.97679 0.135478
    outer loop
      vertex 51.8104 12.2555 52.0772
      vertex 30.2819 9 2.24004
      vertex 54.0217 11.7369 51.046
    endloop
  endfacet
  facet normal -0.165913 -0.97679 0.135477
    outer loop
      vertex 30.2819 9 2.24004
      vertex 51.8104 12.2555 52.0772
      vertex 29.4822 9 1.26071
    endloop
  endfacet
  facet normal 0.694838 0.668206 -0.265897
    outer loop
      vertex 43.0815 -9.17108 56.1475
      vertex 17.9499 -5.38047 0
      vertex 43.0296 -9.10753 56.1717
    endloop
  endfacet
  facet normal 0.694841 0.668202 -0.265898
    outer loop
      vertex 17.9499 -5.38047 0
      vertex 43.0815 -9.17108 56.1475
      vertex 19.2855 -6.76935 0
    endloop
  endfacet
  facet normal 0.694841 0.668202 -0.265899
    outer loop
      vertex 43.0296 -9.10753 56.1717
      vertex 17.9071 -5.33601 0
      vertex 41.5169 -7.2538 56.8771
    endloop
  endfacet
  facet normal 0.694841 0.668202 -0.265899
    outer loop
      vertex 17.9071 -5.33601 0
      vertex 43.0296 -9.10753 56.1717
      vertex 17.9499 -5.38047 0
    endloop
  endfacet
  facet normal 0.390377 -0.912277 -0.123924
    outer loop
      vertex 22.8775 8.73979 0
      vertex 45.0439 10.7223 55.2324
      vertex 22.7382 8.6802 0
    endloop
  endfacet
  facet normal 0.390374 -0.912278 -0.123923
    outer loop
      vertex 45.0439 10.7223 55.2324
      vertex 22.8775 8.73979 0
      vertex 47.1092 11.7369 54.2694
    endloop
  endfacet
  facet normal 0.210429 -0.97679 -0.0400133
    outer loop
      vertex 23.0318 8.77304 0
      vertex 47.1092 11.7369 54.2694
      vertex 22.8775 8.73979 0
    endloop
  endfacet
  facet normal 0.210428 -0.97679 -0.0400132
    outer loop
      vertex 47.1092 11.7369 54.2694
      vertex 23.0318 8.77304 0
      vertex 49.3205 12.2555 53.2382
    endloop
  endfacet
  facet normal 0.88301 -0.308593 -0.353643
    outer loop
      vertex 16.253 1.87975 0
      vertex 39.6492 2.64716 57.748
      vertex 39.6252 2.56582 57.7592
    endloop
  endfacet
  facet normal 0.883012 -0.308588 -0.353644
    outer loop
      vertex 39.6492 2.64716 57.748
      vertex 16.253 1.87975 0
      vertex 16.8696 3.64397 0
    endloop
  endfacet
  facet normal 0.92235 -0.104383 -0.371988
    outer loop
      vertex 39.3808 0 57.8732
      vertex 16.0433 0.0270225 0
      vertex 39.6171 2.48076 57.763
    endloop
  endfacet
  facet normal 0.922352 -0.10436 -0.371989
    outer loop
      vertex 16.0433 0.0270225 0
      vertex 39.3808 0 57.8732
      vertex 16.0403 0 0
    endloop
  endfacet
  facet normal 0.922349 -0.104398 -0.371987
    outer loop
      vertex 39.6171 2.48076 57.763
      vertex 16.253 1.87975 0
      vertex 39.6252 2.56582 57.7592
    endloop
  endfacet
  facet normal 0.92235 -0.104384 -0.371988
    outer loop
      vertex 16.253 1.87975 0
      vertex 39.6171 2.48076 57.763
      vertex 16.0433 0.0270225 0
    endloop
  endfacet
  facet normal 0.694838 -0.668206 -0.265897
    outer loop
      vertex 17.9499 5.38047 0
      vertex 43.0815 9.17108 56.1475
      vertex 43.0296 9.10753 56.1717
    endloop
  endfacet
  facet normal 0.694841 -0.668202 -0.265898
    outer loop
      vertex 43.0815 9.17108 56.1475
      vertex 17.9499 5.38047 0
      vertex 19.2855 6.76935 0
    endloop
  endfacet
  facet normal 0.554237 -0.807891 -0.200334
    outer loop
      vertex 19.3581 6.81913 0
      vertex 43.0815 9.17108 56.1475
      vertex 19.2855 6.76935 0
    endloop
  endfacet
  facet normal 0.554233 -0.807894 -0.200332
    outer loop
      vertex 43.0815 9.17108 56.1475
      vertex 19.3581 6.81913 0
      vertex 44.9104 10.6373 55.2947
    endloop
  endfacet
  facet normal -0.345866 -0.912274 0.219391
    outer loop
      vertex 56.087 10.7223 50.083
      vertex 39.7456 9 17.1593
      vertex 56.1578 10.6875 50.0499
    endloop
  endfacet
  facet normal -0.345859 -0.912278 0.219388
    outer loop
      vertex 39.7456 9 17.1593
      vertex 56.087 10.7223 50.083
      vertex 32.4949 9 5.72871
    endloop
  endfacet
  facet normal 0.883009 -0.308597 -0.353643
    outer loop
      vertex 40.3478 5.0195 57.4223
      vertex 16.8696 3.64397 0
      vertex 16.8832 3.68309 0
    endloop
  endfacet
  facet normal 0.883012 -0.308588 -0.353644
    outer loop
      vertex 16.8696 3.64397 0
      vertex 40.3478 5.0195 57.4223
      vertex 39.6492 2.64716 57.748
    endloop
  endfacet
  facet normal 0.806059 -0.499297 -0.31776
    outer loop
      vertex 16.8832 3.68309 0
      vertex 40.3865 5.09356 57.4042
      vertex 40.3478 5.0195 57.4223
    endloop
  endfacet
  facet normal 0.806054 -0.499306 -0.317758
    outer loop
      vertex 40.3865 5.09356 57.4042
      vertex 16.8832 3.68309 0
      vertex 17.8759 5.28551 0
    endloop
  endfacet
  facet normal 0.92235 0.104384 -0.371988
    outer loop
      vertex 39.6171 -2.48076 57.763
      vertex 16.253 -1.87975 0
      vertex 16.0433 -0.0270225 0
    endloop
  endfacet
  facet normal 0.922349 0.104398 -0.371987
    outer loop
      vertex 16.253 -1.87975 0
      vertex 39.6171 -2.48076 57.763
      vertex 39.6252 -2.56582 57.7592
    endloop
  endfacet
  facet normal -0.509718 -0.807894 0.295794
    outer loop
      vertex 56.2205 10.6373 50.0207
      vertex 58 9.1668 49.0709
      vertex 58 9.21073 49.1909
    endloop
  endfacet
  facet normal -0.509717 -0.807894 0.295796
    outer loop
      vertex 56.2205 10.6373 50.0207
      vertex 56.0752 9 45.2985
      vertex 58 9.1668 49.0709
    endloop
  endfacet
  facet normal -0.509717 -0.807894 0.295796
    outer loop
      vertex 56.0752 9 45.2985
      vertex 56.2205 10.6373 50.0207
      vertex 45.0999 9 26.3858
    endloop
  endfacet
  facet normal -0.650326 -0.668201 0.361363
    outer loop
      vertex 58 9.1668 49.0709
      vertex 57.325 9 47.5477
      vertex 58 9.09349 48.9354
    endloop
  endfacet
  facet normal -0.650329 -0.668198 0.361364
    outer loop
      vertex 57.325 9 47.5477
      vertex 58 9.1668 49.0709
      vertex 56.0752 9 45.2985
    endloop
  endfacet
  facet normal -0.165922 -0.976788 0.135482
    outer loop
      vertex 51.7346 12.2733 52.1125
      vertex 29.4822 9 1.26071
      vertex 51.8104 12.2555 52.0772
    endloop
  endfacet
  facet normal -0.165913 -0.97679 0.135478
    outer loop
      vertex 27.0815 9.23292 0
      vertex 29.4822 9 1.26071
      vertex 51.7346 12.2733 52.1125
    endloop
  endfacet
  facet normal -0.165913 -0.97679 0.135477
    outer loop
      vertex 29.4822 9 1.26071
      vertex 27.0815 9.23292 0
      vertex 28.4528 9 0
    endloop
  endfacet
  facet normal -0.509721 -0.807891 0.295798
    outer loop
      vertex 56.1578 10.6875 50.0499
      vertex 45.0999 9 26.3858
      vertex 56.2205 10.6373 50.0207
    endloop
  endfacet
  facet normal -0.509718 -0.807894 0.295797
    outer loop
      vertex 45.0999 9 26.3858
      vertex 56.1578 10.6875 50.0499
      vertex 39.7456 9 17.1593
    endloop
  endfacet
  facet normal 0 -1 0
    outer loop
      vertex 58 9 38.6011
      vertex 57.325 9 47.5477
      vertex 56.0752 9 45.2985
    endloop
  endfacet
  facet normal 0 -1 0
    outer loop
      vertex 57.325 9 47.5477
      vertex 58 9 38.6011
      vertex 58 9 48.7625
    endloop
  endfacet
  facet normal 0 -1 0
    outer loop
      vertex 45.0999 9 26.3858
      vertex 58 9 38.6011
      vertex 56.0752 9 45.2985
    endloop
  endfacet
  facet normal 0 -1 0
    outer loop
      vertex 40 9 0
      vertex 45.0999 9 26.3858
      vertex 39.7456 9 17.1593
    endloop
  endfacet
  facet normal 0 -1 0
    outer loop
      vertex 40 9 0
      vertex 39.7456 9 17.1593
      vertex 32.4949 9 5.72871
    endloop
  endfacet
  facet normal 0 -1 0
    outer loop
      vertex 40 9 0
      vertex 32.4949 9 5.72871
      vertex 30.2819 9 2.24004
    endloop
  endfacet
  facet normal 0 -1 0
    outer loop
      vertex 40 9 0
      vertex 29.4822 9 1.26071
      vertex 28.4528 9 0
    endloop
  endfacet
  facet normal 0 -1 -0
    outer loop
      vertex 45.0999 9 26.3858
      vertex 40 9 0
      vertex 58 9 38.6011
    endloop
  endfacet
  facet normal 0 -1 0
    outer loop
      vertex 29.4822 9 1.26071
      vertex 40 9 0
      vertex 30.2819 9 2.24004
    endloop
  endfacet
  facet normal 0 1 -0
    outer loop
      vertex 58 -9 38.6011
      vertex 57.325 -9 47.5477
      vertex 58 -9 48.7625
    endloop
  endfacet
  facet normal 0 1 0
    outer loop
      vertex 57.325 -9 47.5477
      vertex 58 -9 38.6011
      vertex 56.0752 -9 45.2985
    endloop
  endfacet
  facet normal 0 1 0
    outer loop
      vertex 58 -9 38.6011
      vertex 45.0999 -9 26.3858
      vertex 56.0752 -9 45.2985
    endloop
  endfacet
  facet normal 0 1 0
    outer loop
      vertex 40 -9 0
      vertex 45.0999 -9 26.3858
      vertex 58 -9 38.6011
    endloop
  endfacet
  facet normal 0 1 0
    outer loop
      vertex 45.0999 -9 26.3858
      vertex 40 -9 0
      vertex 39.7456 -9 17.1593
    endloop
  endfacet
  facet normal 0 1 0
    outer loop
      vertex 39.7456 -9 17.1593
      vertex 40 -9 0
      vertex 32.4949 -9 5.72871
    endloop
  endfacet
  facet normal 0 1 0
    outer loop
      vertex 32.4949 -9 5.72871
      vertex 40 -9 0
      vertex 30.2819 -9 2.24004
    endloop
  endfacet
  facet normal 0 1 0
    outer loop
      vertex 40 -9 0
      vertex 29.4822 -9 1.26071
      vertex 30.2819 -9 2.24004
    endloop
  endfacet
  facet normal 0 1 0
    outer loop
      vertex 29.4822 -9 1.26071
      vertex 40 -9 0
      vertex 28.4528 -9 0
    endloop
  endfacet
  facet normal 0.422618 0 0.906308
    outer loop
      vertex 58 15 49.1909
      vertex 56.2205 10.6373 50.0207
      vertex 58 9.21073 49.1909
    endloop
  endfacet
  facet normal 0.422647 -1.44209e-05 0.906295
    outer loop
      vertex 58 15 49.1909
      vertex 56.1578 10.6875 50.0499
      vertex 56.2205 10.6373 50.0207
    endloop
  endfacet
  facet normal 0.422598 1.06393e-05 0.906317
    outer loop
      vertex 58 15 49.1909
      vertex 56.087 10.7223 50.083
      vertex 56.1578 10.6875 50.0499
    endloop
  endfacet
  facet normal 0.422619 -4.58463e-07 0.906308
    outer loop
      vertex 58 15 49.1909
      vertex 54.0217 11.7369 51.046
      vertex 56.087 10.7223 50.083
    endloop
  endfacet
  facet normal 0.422618 3.54989e-07 0.906308
    outer loop
      vertex 58 15 49.1909
      vertex 51.8104 12.2555 52.0772
      vertex 54.0217 11.7369 51.046
    endloop
  endfacet
  facet normal 0.422609 2.69498e-05 0.906312
    outer loop
      vertex 58 15 49.1909
      vertex 51.7346 12.2733 52.1125
      vertex 51.8104 12.2555 52.0772
    endloop
  endfacet
  facet normal 0.422619 -1.36702e-06 0.906308
    outer loop
      vertex 58 15 49.1909
      vertex 49.3963 12.2733 53.2029
      vertex 51.7346 12.2733 52.1125
    endloop
  endfacet
  facet normal 0.422618 1.68117e-07 0.906308
    outer loop
      vertex 34.8198 15 60
      vertex 49.3963 12.2733 53.2029
      vertex 58 15 49.1909
    endloop
  endfacet
  facet normal 0.42262 1.47331e-05 0.906307
    outer loop
      vertex 49.3963 12.2733 53.2029
      vertex 34.8198 15 60
      vertex 49.3205 12.2555 53.2382
    endloop
  endfacet
  facet normal 0.422616 -7.39709e-06 0.906309
    outer loop
      vertex 34.8198 15 60
      vertex 44.9104 10.6373 55.2947
      vertex 44.9731 10.6875 55.2654
    endloop
  endfacet
  facet normal 0.422617 -6.89638e-07 0.906308
    outer loop
      vertex 34.8198 15 60
      vertex 39.6492 2.64716 57.748
      vertex 40.3478 5.0195 57.4223
    endloop
  endfacet
  facet normal 0.422617 -3.84813e-07 0.906308
    outer loop
      vertex 39.6171 2.48076 57.763
      vertex 34.8198 15 60
      vertex 39.3808 0 57.8732
    endloop
  endfacet
  facet normal 0.422657 1.83304e-05 0.90629
    outer loop
      vertex 39.6252 2.56582 57.7592
      vertex 34.8198 15 60
      vertex 39.6171 2.48076 57.763
    endloop
  endfacet
  facet normal 0.422621 1.27862e-06 0.906306
    outer loop
      vertex 39.6492 2.64716 57.748
      vertex 34.8198 15 60
      vertex 39.6252 2.56582 57.7592
    endloop
  endfacet
  facet normal 0.422646 1.88167e-05 0.906295
    outer loop
      vertex 40.3865 5.09356 57.4042
      vertex 34.8198 15 60
      vertex 40.3478 5.0195 57.4223
    endloop
  endfacet
  facet normal 0.422618 -3.4123e-07 0.906308
    outer loop
      vertex 41.5169 7.2538 56.8771
      vertex 34.8198 15 60
      vertex 40.3865 5.09356 57.4042
    endloop
  endfacet
  facet normal 0.422618 -2.76255e-07 0.906308
    outer loop
      vertex 43.0296 9.10753 56.1717
      vertex 34.8198 15 60
      vertex 41.5169 7.2538 56.8771
    endloop
  endfacet
  facet normal 0.42262 2.8602e-06 0.906307
    outer loop
      vertex 43.0815 9.17108 56.1475
      vertex 34.8198 15 60
      vertex 43.0296 9.10753 56.1717
    endloop
  endfacet
  facet normal 0.422618 4.885e-07 0.906308
    outer loop
      vertex 44.9104 10.6373 55.2947
      vertex 34.8198 15 60
      vertex 43.0815 9.17108 56.1475
    endloop
  endfacet
  facet normal 0.422626 2.12197e-05 0.906304
    outer loop
      vertex 45.0439 10.7223 55.2324
      vertex 34.8198 15 60
      vertex 44.9731 10.6875 55.2654
    endloop
  endfacet
  facet normal 0.422618 -1.02264e-06 0.906308
    outer loop
      vertex 47.1092 11.7369 54.2694
      vertex 34.8198 15 60
      vertex 45.0439 10.7223 55.2324
    endloop
  endfacet
  facet normal 0.422618 -1.51161e-07 0.906308
    outer loop
      vertex 49.3205 12.2555 53.2382
      vertex 34.8198 15 60
      vertex 47.1092 11.7369 54.2694
    endloop
  endfacet
  facet normal 0.422618 0 0.906308
    outer loop
      vertex 56.2205 -10.6373 50.0207
      vertex 58 -15 49.1909
      vertex 58 -9.21073 49.1909
    endloop
  endfacet
  facet normal 0.422647 1.44209e-05 0.906295
    outer loop
      vertex 56.1578 -10.6875 50.0499
      vertex 58 -15 49.1909
      vertex 56.2205 -10.6373 50.0207
    endloop
  endfacet
  facet normal 0.422598 -1.06393e-05 0.906317
    outer loop
      vertex 56.087 -10.7223 50.083
      vertex 58 -15 49.1909
      vertex 56.1578 -10.6875 50.0499
    endloop
  endfacet
  facet normal 0.422619 4.58463e-07 0.906308
    outer loop
      vertex 54.0217 -11.7369 51.046
      vertex 58 -15 49.1909
      vertex 56.087 -10.7223 50.083
    endloop
  endfacet
  facet normal 0.422618 -3.54989e-07 0.906308
    outer loop
      vertex 51.8104 -12.2555 52.0772
      vertex 58 -15 49.1909
      vertex 54.0217 -11.7369 51.046
    endloop
  endfacet
  facet normal 0.422609 -2.69498e-05 0.906312
    outer loop
      vertex 51.7346 -12.2733 52.1125
      vertex 58 -15 49.1909
      vertex 51.8104 -12.2555 52.0772
    endloop
  endfacet
  facet normal 0.422619 1.36702e-06 0.906308
    outer loop
      vertex 49.3963 -12.2733 53.2029
      vertex 58 -15 49.1909
      vertex 51.7346 -12.2733 52.1125
    endloop
  endfacet
  facet normal 0.42262 -1.47331e-05 0.906307
    outer loop
      vertex 34.8198 -15 60
      vertex 49.3963 -12.2733 53.2029
      vertex 49.3205 -12.2555 53.2382
    endloop
  endfacet
  facet normal 0.422618 1.51161e-07 0.906308
    outer loop
      vertex 34.8198 -15 60
      vertex 49.3205 -12.2555 53.2382
      vertex 47.1092 -11.7369 54.2694
    endloop
  endfacet
  facet normal 0.422618 -4.885e-07 0.906308
    outer loop
      vertex 34.8198 -15 60
      vertex 44.9104 -10.6373 55.2947
      vertex 43.0815 -9.17108 56.1475
    endloop
  endfacet
  facet normal 0.422621 -1.27862e-06 0.906306
    outer loop
      vertex 34.8198 -15 60
      vertex 39.6492 -2.64716 57.748
      vertex 39.6252 -2.56582 57.7592
    endloop
  endfacet
  facet normal 0.422618 -0 0.906308
    outer loop
      vertex 34.8198 -15 60
      vertex 39.3808 0 57.8732
      vertex 34.8198 15 60
    endloop
  endfacet
  facet normal 0.422617 3.84813e-07 0.906308
    outer loop
      vertex 39.3808 0 57.8732
      vertex 34.8198 -15 60
      vertex 39.6171 -2.48076 57.763
    endloop
  endfacet
  facet normal 0.422618 -1.68117e-07 0.906308
    outer loop
      vertex 49.3963 -12.2733 53.2029
      vertex 34.8198 -15 60
      vertex 58 -15 49.1909
    endloop
  endfacet
  facet normal 0.422618 1.02264e-06 0.906308
    outer loop
      vertex 45.0439 -10.7223 55.2324
      vertex 34.8198 -15 60
      vertex 47.1092 -11.7369 54.2694
    endloop
  endfacet
  facet normal 0.422626 -2.12197e-05 0.906304
    outer loop
      vertex 44.9731 -10.6875 55.2654
      vertex 34.8198 -15 60
      vertex 45.0439 -10.7223 55.2324
    endloop
  endfacet
  facet normal 0.422616 7.39709e-06 0.906309
    outer loop
      vertex 44.9104 -10.6373 55.2947
      vertex 34.8198 -15 60
      vertex 44.9731 -10.6875 55.2654
    endloop
  endfacet
  facet normal 0.42262 -2.8602e-06 0.906307
    outer loop
      vertex 43.0296 -9.10753 56.1717
      vertex 34.8198 -15 60
      vertex 43.0815 -9.17108 56.1475
    endloop
  endfacet
  facet normal 0.422618 2.76255e-07 0.906308
    outer loop
      vertex 41.5169 -7.2538 56.8771
      vertex 34.8198 -15 60
      vertex 43.0296 -9.10753 56.1717
    endloop
  endfacet
  facet normal 0.422618 3.4123e-07 0.906308
    outer loop
      vertex 40.3865 -5.09356 57.4042
      vertex 34.8198 -15 60
      vertex 41.5169 -7.2538 56.8771
    endloop
  endfacet
  facet normal 0.422646 -1.88167e-05 0.906295
    outer loop
      vertex 40.3478 -5.0195 57.4223
      vertex 34.8198 -15 60
      vertex 40.3865 -5.09356 57.4042
    endloop
  endfacet
  facet normal 0.422617 6.89638e-07 0.906308
    outer loop
      vertex 39.6492 -2.64716 57.748
      vertex 34.8198 -15 60
      vertex 40.3478 -5.0195 57.4223
    endloop
  endfacet
  facet normal 0.422657 -1.83304e-05 0.90629
    outer loop
      vertex 39.6171 -2.48076 57.763
      vertex 34.8198 -15 60
      vertex 39.6252 -2.56582 57.7592
    endloop
  endfacet
  facet normal -1 0 0
    outer loop
      vertex 0 9.71131 32.8546
      vertex 0 15 60
      vertex 0 15 0
    endloop
  endfacet
  facet normal -1 0 0
    outer loop
      vertex 0 15 60
      vertex 0 9.71131 32.8546
      vertex 0 9.71466 33.0119
    endloop
  endfacet
  facet normal -1 0 0
    outer loop
      vertex 0 15 0
      vertex 0 9.66857 30.8439
      vertex 0 9.71131 32.8546
    endloop
  endfacet
  facet normal -1 0 0
    outer loop
      vertex 0 15 0
      vertex 0 9.24905 28.9497
      vertex 0 9.66857 30.8439
    endloop
  endfacet
  facet normal -1 0 0
    outer loop
      vertex 0 15 0
      vertex 0 9.2033 28.7431
      vertex 0 9.24905 28.9497
    endloop
  endfacet
  facet normal -1 0 0
    outer loop
      vertex 0 15 0
      vertex 0 8.44031 27.0155
      vertex 0 9.2033 28.7431
    endloop
  endfacet
  facet normal -1 0 0
    outer loop
      vertex 0 15 0
      vertex 0 8.34446 26.7985
      vertex 0 8.44031 27.0155
    endloop
  endfacet
  facet normal -1 0 0
    outer loop
      vertex 0 15 0
      vertex 0 8.20484 26.6015
      vertex 0 8.34446 26.7985
    endloop
  endfacet
  facet normal -1 0 0
    outer loop
      vertex 0 15 0
      vertex 0 7.13332 25.0903
      vertex 0 8.20484 26.6015
    endloop
  endfacet
  facet normal -1 0 0
    outer loop
      vertex 0 15 0
      vertex 0 5.82586 23.8745
      vertex 0 7.13332 25.0903
    endloop
  endfacet
  facet normal -1 0 0
    outer loop
      vertex 0 15 0
      vertex 0 5.62442 23.6872
      vertex 0 5.82586 23.8745
    endloop
  endfacet
  facet normal -1 0 0
    outer loop
      vertex 0 15 0
      vertex 0 5.3868 23.5449
      vertex 0 5.62442 23.6872
    endloop
  endfacet
  facet normal -1 0 0
    outer loop
      vertex 0 15 0
      vertex 0 3.88293 22.6444
      vertex 0 5.3868 23.5449
    endloop
  endfacet
  facet normal -1 0 0
    outer loop
      vertex 0 15 0
      vertex 0 3.61049 22.5524
      vertex 0 3.88293 22.6444
    endloop
  endfacet
  facet normal -1 0 0
    outer loop
      vertex 0 15 0
      vertex 0 1.98199 22.0024
      vertex 0 3.61049 22.5524
    endloop
  endfacet
  facet normal -1 0 0
    outer loop
      vertex 0 15 0
      vertex 0 1.69003 21.9705
      vertex 0 1.98199 22.0024
    endloop
  endfacet
  facet normal -1 0 0
    outer loop
      vertex 0 15 0
      vertex 0 0 21.7856
      vertex 0 1.69003 21.9705
    endloop
  endfacet
  facet normal -1 0 0
    outer loop
      vertex 0 -15 0
      vertex 0 0 21.7856
      vertex 0 15 0
    endloop
  endfacet
  facet normal -1 -0 0
    outer loop
      vertex 0 0 21.7856
      vertex 0 -15 0
      vertex 0 -1.69003 21.9705
    endloop
  endfacet
  facet normal -1 -0 0
    outer loop
      vertex 0 -1.69003 21.9705
      vertex 0 -15 0
      vertex 0 -1.98199 22.0024
    endloop
  endfacet
  facet normal -1 -0 0
    outer loop
      vertex 0 -1.98199 22.0024
      vertex 0 -15 0
      vertex 0 -3.61049 22.5524
    endloop
  endfacet
  facet normal -1 -0 0
    outer loop
      vertex 0 -3.61049 22.5524
      vertex 0 -15 0
      vertex 0 -3.88293 22.6444
    endloop
  endfacet
  facet normal -1 -0 0
    outer loop
      vertex 0 -3.88293 22.6444
      vertex 0 -15 0
      vertex 0 -5.3868 23.5449
    endloop
  endfacet
  facet normal -1 -0 0
    outer loop
      vertex 0 -5.3868 23.5449
      vertex 0 -15 0
      vertex 0 -5.62442 23.6872
    endloop
  endfacet
  facet normal -1 -0 0
    outer loop
      vertex 0 -5.62442 23.6872
      vertex 0 -15 0
      vertex 0 -5.82586 23.8745
    endloop
  endfacet
  facet normal -1 0 0
    outer loop
      vertex 0 -15 0
      vertex 0 -9.24905 28.9497
      vertex 0 -9.2033 28.7431
    endloop
  endfacet
  facet normal -1 0 0
    outer loop
      vertex 0 -15 0
      vertex 0 -9.71131 32.8546
      vertex 0 -9.66857 30.8439
    endloop
  endfacet
  facet normal -1 0 0
    outer loop
      vertex 0 -15 60
      vertex 0 -9.71131 32.8546
      vertex 0 -15 0
    endloop
  endfacet
  facet normal -1 -0 0
    outer loop
      vertex 0 -9.24905 28.9497
      vertex 0 -15 0
      vertex 0 -9.66857 30.8439
    endloop
  endfacet
  facet normal -1 -0 0
    outer loop
      vertex 0 -8.44031 27.0155
      vertex 0 -15 0
      vertex 0 -9.2033 28.7431
    endloop
  endfacet
  facet normal -1 -0 0
    outer loop
      vertex 0 -8.34446 26.7985
      vertex 0 -15 0
      vertex 0 -8.44031 27.0155
    endloop
  endfacet
  facet normal -1 -0 0
    outer loop
      vertex 0 -8.20484 26.6015
      vertex 0 -15 0
      vertex 0 -8.34446 26.7985
    endloop
  endfacet
  facet normal -1 -0 0
    outer loop
      vertex 0 -7.13332 25.0903
      vertex 0 -15 0
      vertex 0 -8.20484 26.6015
    endloop
  endfacet
  facet normal -1 -0 0
    outer loop
      vertex 0 -5.82586 23.8745
      vertex 0 -15 0
      vertex 0 -7.13332 25.0903
    endloop
  endfacet
  facet normal -1 0 0
    outer loop
      vertex 0 9.35569 35.0286
      vertex 0 15 60
      vertex 0 9.71466 33.0119
    endloop
  endfacet
  facet normal -1 0 0
    outer loop
      vertex 0 9.3336 35.1526
      vertex 0 15 60
      vertex 0 9.35569 35.0286
    endloop
  endfacet
  facet normal -1 0 0
    outer loop
      vertex 0 8.57176 37.0808
      vertex 0 15 60
      vertex 0 9.3336 35.1526
    endloop
  endfacet
  facet normal -1 0 0
    outer loop
      vertex 0 8.53646 37.1702
      vertex 0 15 60
      vertex 0 8.57176 37.0808
    endloop
  endfacet
  facet normal -1 0 0
    outer loop
      vertex 0 8.48581 37.2473
      vertex 0 15 60
      vertex 0 8.53646 37.1702
    endloop
  endfacet
  facet normal -1 0 0
    outer loop
      vertex 0 7.35384 38.9717
      vertex 0 15 60
      vertex 0 8.48581 37.2473
    endloop
  endfacet
  facet normal -1 0 0
    outer loop
      vertex 0 5.86896 40.4392
      vertex 0 15 60
      vertex 0 7.35384 38.9717
    endloop
  endfacet
  facet normal -1 0 0
    outer loop
      vertex 0 5.83533 40.4724
      vertex 0 15 60
      vertex 0 5.86896 40.4392
    endloop
  endfacet
  facet normal -1 0 0
    outer loop
      vertex 0 5.79662 40.4968
      vertex 0 15 60
      vertex 0 5.83533 40.4724
    endloop
  endfacet
  facet normal -1 0 0
    outer loop
      vertex 0 4.04774 41.6002
      vertex 0 15 60
      vertex 0 5.79662 40.4968
    endloop
  endfacet
  facet normal -1 0 0
    outer loop
      vertex 0 4.01918 41.6103
      vertex 0 15 60
      vertex 0 4.04774 41.6002
    endloop
  endfacet
  facet normal -1 0 0
    outer loop
      vertex 0 2.0722 42.2999
      vertex 0 15 60
      vertex 0 4.01918 41.6103
    endloop
  endfacet
  facet normal -1 0 0
    outer loop
      vertex 0 2.05148 42.3023
      vertex 0 15 60
      vertex 0 2.0722 42.2999
    endloop
  endfacet
  facet normal -1 0 0
    outer loop
      vertex 0 0 42.5371
      vertex 0 15 60
      vertex 0 2.05148 42.3023
    endloop
  endfacet
  facet normal -1 0 0
    outer loop
      vertex 0 -15 60
      vertex 0 0 42.5371
      vertex 0 -2.05148 42.3023
    endloop
  endfacet
  facet normal -1 0 0
    outer loop
      vertex 0 -15 60
      vertex 0 -2.05148 42.3023
      vertex 0 -2.0722 42.2999
    endloop
  endfacet
  facet normal -1 0 0
    outer loop
      vertex 0 -15 60
      vertex 0 -2.0722 42.2999
      vertex 0 -4.01918 41.6103
    endloop
  endfacet
  facet normal -1 0 0
    outer loop
      vertex 0 -15 60
      vertex 0 -4.01918 41.6103
      vertex 0 -4.04774 41.6002
    endloop
  endfacet
  facet normal -1 0 0
    outer loop
      vertex 0 -15 60
      vertex 0 -4.04774 41.6002
      vertex 0 -5.79662 40.4968
    endloop
  endfacet
  facet normal -1 0 0
    outer loop
      vertex 0 -15 60
      vertex 0 -5.79662 40.4968
      vertex 0 -5.83533 40.4724
    endloop
  endfacet
  facet normal -1 0 0
    outer loop
      vertex 0 -15 60
      vertex 0 -5.86896 40.4392
      vertex 0 -7.35384 38.9717
    endloop
  endfacet
  facet normal -1 0 0
    outer loop
      vertex 0 -15 60
      vertex 0 -8.48581 37.2473
      vertex 0 -8.53646 37.1702
    endloop
  endfacet
  facet normal -1 0 0
    outer loop
      vertex 0 -15 60
      vertex 0 -8.57176 37.0808
      vertex 0 -9.3336 35.1526
    endloop
  endfacet
  facet normal -1 0 0
    outer loop
      vertex 0 -15 60
      vertex 0 -9.35569 35.0286
      vertex 0 -9.71466 33.0119
    endloop
  endfacet
  facet normal -1 0 0
    outer loop
      vertex 0 0 42.5371
      vertex 0 -15 60
      vertex 0 15 60
    endloop
  endfacet
  facet normal -1 0 0
    outer loop
      vertex 0 -5.86896 40.4392
      vertex 0 -15 60
      vertex 0 -5.83533 40.4724
    endloop
  endfacet
  facet normal -1 0 0
    outer loop
      vertex 0 -8.48581 37.2473
      vertex 0 -15 60
      vertex 0 -7.35384 38.9717
    endloop
  endfacet
  facet normal -1 0 0
    outer loop
      vertex 0 -8.57176 37.0808
      vertex 0 -15 60
      vertex 0 -8.53646 37.1702
    endloop
  endfacet
  facet normal -1 0 0
    outer loop
      vertex 0 -9.35569 35.0286
      vertex 0 -15 60
      vertex 0 -9.3336 35.1526
    endloop
  endfacet
  facet normal -1 0 0
    outer loop
      vertex 0 -9.71131 32.8546
      vertex 0 -15 60
      vertex 0 -9.71466 33.0119
    endloop
  endfacet
  facet normal -0 0 1
    outer loop
      vertex 0 15 60
      vertex 34.8198 -15 60
      vertex 34.8198 15 60
    endloop
  endfacet
  facet normal 0 0 1
    outer loop
      vertex 34.8198 -15 60
      vertex 0 15 60
      vertex 0 -15 60
    endloop
  endfacet
  facet normal 1 0 0
    outer loop
      vertex 58 -15 49.1909
      vertex 58 -9 48.7625
      vertex 58 -9.09349 48.9354
    endloop
  endfacet
  facet normal 1 0 0
    outer loop
      vertex 58 -15 49.1909
      vertex 58 -9.09349 48.9354
      vertex 58 -9.1668 49.0709
    endloop
  endfacet
  facet normal 1 -0 0
    outer loop
      vertex 58 -15 49.1909
      vertex 58 -9.1668 49.0709
      vertex 58 -9.21073 49.1909
    endloop
  endfacet
  facet normal 1 0 0
    outer loop
      vertex 58 -9 48.7625
      vertex 58 -15 49.1909
      vertex 58 -15 38.6011
    endloop
  endfacet
  facet normal 1 0 0
    outer loop
      vertex 58 -9 48.7625
      vertex 58 -15 38.6011
      vertex 58 -9 38.6011
    endloop
  endfacet
  facet normal 1 0 0
    outer loop
      vertex 58 9.1668 49.0709
      vertex 58 15 49.1909
      vertex 58 9.21073 49.1909
    endloop
  endfacet
  facet normal 1 0 0
    outer loop
      vertex 58 9.09349 48.9354
      vertex 58 15 49.1909
      vertex 58 9.1668 49.0709
    endloop
  endfacet
  facet normal 1 0 0
    outer loop
      vertex 58 9 48.7625
      vertex 58 15 49.1909
      vertex 58 9.09349 48.9354
    endloop
  endfacet
  facet normal 1 0 0
    outer loop
      vertex 58 15 49.1909
      vertex 58 9 48.7625
      vertex 58 15 38.6011
    endloop
  endfacet
  facet normal 1 0 0
    outer loop
      vertex 58 15 38.6011
      vertex 58 9 48.7625
      vertex 58 9 38.6011
    endloop
  endfacet
  facet normal 0 1 -0
    outer loop
      vertex 58 15 38.6011
      vertex 34.8198 15 60
      vertex 58 15 49.1909
    endloop
  endfacet
  facet normal 0 1 -0
    outer loop
      vertex 40 15 0
      vertex 34.8198 15 60
      vertex 58 15 38.6011
    endloop
  endfacet
  facet normal 0 1 0
    outer loop
      vertex 0 15 0
      vertex 34.8198 15 60
      vertex 40 15 0
    endloop
  endfacet
  facet normal 0 1 0
    outer loop
      vertex 34.8198 15 60
      vertex 0 15 0
      vertex 0 15 60
    endloop
  endfacet
  facet normal 0 0 -1
    outer loop
      vertex 40 -15 0
      vertex 28.4528 -9 0
      vertex 40 -9 0
    endloop
  endfacet
  facet normal 0 0 -1
    outer loop
      vertex 40 -15 0
      vertex 27.0815 -9.23292 0
      vertex 28.4528 -9 0
    endloop
  endfacet
  facet normal 0 0 -1
    outer loop
      vertex 40 -15 0
      vertex 24.9456 -9.18531 0
      vertex 27.0815 -9.23292 0
    endloop
  endfacet
  facet normal 0 0 -1
    outer loop
      vertex 0 -15 0
      vertex 24.9456 -9.18531 0
      vertex 40 -15 0
    endloop
  endfacet
  facet normal -0 0 -1
    outer loop
      vertex 24.9456 -9.18531 0
      vertex 0 -15 0
      vertex 23.0318 -8.77304 0
    endloop
  endfacet
  facet normal 0 0 -1
    outer loop
      vertex 0 -15 0
      vertex 17.8759 -5.28551 0
      vertex 17.9071 -5.33601 0
    endloop
  endfacet
  facet normal -0 0 -1
    outer loop
      vertex 16.0433 -0.0270225 0
      vertex 0 -15 0
      vertex 16.0403 0 0
    endloop
  endfacet
  facet normal -0 0 -1
    outer loop
      vertex 16.253 -1.87975 0
      vertex 0 -15 0
      vertex 16.0433 -0.0270225 0
    endloop
  endfacet
  facet normal -0 0 -1
    outer loop
      vertex 16.8696 -3.64397 0
      vertex 0 -15 0
      vertex 16.253 -1.87975 0
    endloop
  endfacet
  facet normal -0 0 -1
    outer loop
      vertex 16.8832 -3.68309 0
      vertex 0 -15 0
      vertex 16.8696 -3.64397 0
    endloop
  endfacet
  facet normal -0 0 -1
    outer loop
      vertex 17.8759 -5.28551 0
      vertex 0 -15 0
      vertex 16.8832 -3.68309 0
    endloop
  endfacet
  facet normal -0 0 -1
    outer loop
      vertex 17.9499 -5.38047 0
      vertex 0 -15 0
      vertex 17.9071 -5.33601 0
    endloop
  endfacet
  facet normal -0 0 -1
    outer loop
      vertex 19.2855 -6.76935 0
      vertex 0 -15 0
      vertex 17.9499 -5.38047 0
    endloop
  endfacet
  facet normal -0 0 -1
    outer loop
      vertex 19.3581 -6.81913 0
      vertex 0 -15 0
      vertex 19.2855 -6.76935 0
    endloop
  endfacet
  facet normal -0 0 -1
    outer loop
      vertex 20.9646 -7.92126 0
      vertex 0 -15 0
      vertex 19.3581 -6.81913 0
    endloop
  endfacet
  facet normal -0 0 -1
    outer loop
      vertex 22.7382 -8.6802 0
      vertex 0 -15 0
      vertex 20.9646 -7.92126 0
    endloop
  endfacet
  facet normal -0 0 -1
    outer loop
      vertex 22.8775 -8.73979 0
      vertex 0 -15 0
      vertex 22.7382 -8.6802 0
    endloop
  endfacet
  facet normal -0 0 -1
    outer loop
      vertex 23.0318 -8.77304 0
      vertex 0 -15 0
      vertex 22.8775 -8.73979 0
    endloop
  endfacet
  facet normal 0 0 -1
    outer loop
      vertex 28.4528 9 0
      vertex 40 15 0
      vertex 40 9 0
    endloop
  endfacet
  facet normal 0 0 -1
    outer loop
      vertex 27.0815 9.23292 0
      vertex 40 15 0
      vertex 28.4528 9 0
    endloop
  endfacet
  facet normal 0 0 -1
    outer loop
      vertex 24.9456 9.18531 0
      vertex 40 15 0
      vertex 27.0815 9.23292 0
    endloop
  endfacet
  facet normal 0 0 -1
    outer loop
      vertex 0 15 0
      vertex 24.9456 9.18531 0
      vertex 23.0318 8.77304 0
    endloop
  endfacet
  facet normal 0 0 -1
    outer loop
      vertex 0 15 0
      vertex 23.0318 8.77304 0
      vertex 22.8775 8.73979 0
    endloop
  endfacet
  facet normal 0 0 -1
    outer loop
      vertex 0 15 0
      vertex 22.7382 8.6802 0
      vertex 20.9646 7.92126 0
    endloop
  endfacet
  facet normal 0 0 -1
    outer loop
      vertex 0 15 0
      vertex 17.8759 5.28551 0
      vertex 16.8832 3.68309 0
    endloop
  endfacet
  facet normal 0 0 -1
    outer loop
      vertex 0 15 0
      vertex 16.0403 0 0
      vertex 0 -15 0
    endloop
  endfacet
  facet normal 0 0 -1
    outer loop
      vertex 16.0403 0 0
      vertex 0 15 0
      vertex 16.0433 0.0270225 0
    endloop
  endfacet
  facet normal 0 0 -1
    outer loop
      vertex 16.0433 0.0270225 0
      vertex 0 15 0
      vertex 16.253 1.87975 0
    endloop
  endfacet
  facet normal 0 0 -1
    outer loop
      vertex 16.253 1.87975 0
      vertex 0 15 0
      vertex 16.8696 3.64397 0
    endloop
  endfacet
  facet normal 0 0 -1
    outer loop
      vertex 16.8696 3.64397 0
      vertex 0 15 0
      vertex 16.8832 3.68309 0
    endloop
  endfacet
  facet normal 0 0 -1
    outer loop
      vertex 24.9456 9.18531 0
      vertex 0 15 0
      vertex 40 15 0
    endloop
  endfacet
  facet normal 0 0 -1
    outer loop
      vertex 22.7382 8.6802 0
      vertex 0 15 0
      vertex 22.8775 8.73979 0
    endloop
  endfacet
  facet normal 0 0 -1
    outer loop
      vertex 19.3581 6.81913 0
      vertex 0 15 0
      vertex 20.9646 7.92126 0
    endloop
  endfacet
  facet normal 0 0 -1
    outer loop
      vertex 19.2855 6.76935 0
      vertex 0 15 0
      vertex 19.3581 6.81913 0
    endloop
  endfacet
  facet normal 0 0 -1
    outer loop
      vertex 17.9499 5.38047 0
      vertex 0 15 0
      vertex 19.2855 6.76935 0
    endloop
  endfacet
  facet normal 0 0 -1
    outer loop
      vertex 17.9071 5.33601 0
      vertex 0 15 0
      vertex 17.9499 5.38047 0
    endloop
  endfacet
  facet normal 0 0 -1
    outer loop
      vertex 17.8759 5.28551 0
      vertex 0 15 0
      vertex 17.9071 5.33601 0
    endloop
  endfacet
  facet normal 0 -1 0
    outer loop
      vertex 0 -15 0
      vertex 34.8198 -15 60
      vertex 0 -15 60
    endloop
  endfacet
  facet normal 0 -1 0
    outer loop
      vertex 34.8198 -15 60
      vertex 58 -15 38.6011
      vertex 58 -15 49.1909
    endloop
  endfacet
  facet normal 0 -1 -0
    outer loop
      vertex 34.8198 -15 60
      vertex 0 -15 0
      vertex 40 -15 0
    endloop
  endfacet
  facet normal 0 -1 0
    outer loop
      vertex 34.8198 -15 60
      vertex 40 -15 0
      vertex 58 -15 38.6011
    endloop
  endfacet
  facet normal 0.906308 0 -0.422618
    outer loop
      vertex 58 -15 38.6011
      vertex 40 -9 0
      vertex 58 -9 38.6011
    endloop
  endfacet
  facet normal 0.906308 0 -0.422618
    outer loop
      vertex 40 -9 0
      vertex 58 -15 38.6011
      vertex 40 -15 0
    endloop
  endfacet
  facet normal 0.906308 0 -0.422618
    outer loop
      vertex 58 9 38.6011
      vertex 40 15 0
      vertex 58 15 38.6011
    endloop
  endfacet
  facet normal 0.906308 0 -0.422618
    outer loop
      vertex 40 15 0
      vertex 58 9 38.6011
      vertex 40 9 0
    endloop
  endfacet
  facet normal -0.0582966 -0.998074 -0.021218
    outer loop
      vertex 0 -9.71131 32.8546
      vertex -33.4848 -7.45891 18.9036
      vertex 0 -9.66857 30.8439
    endloop
  endfacet
  facet normal -0.129267 -0.976265 0.173771
    outer loop
      vertex -34.5456 -7.13292 21.8181
      vertex 0 -9.35569 35.0286
      vertex 0 -9.3336 35.1526
    endloop
  endfacet
  facet normal -0.12927 -0.976263 0.173779
    outer loop
      vertex 0 -9.35569 35.0286
      vertex -34.5456 -7.13292 21.8181
      vertex -34.021 -7.45891 20.377
    endloop
  endfacet
  facet normal -0.939688 0 -0.342033
    outer loop
      vertex -31.1878 0 12.5926
      vertex -31.2438 -1.55934 12.7466
      vertex -31.2438 1.55934 12.7466
    endloop
  endfacet
  facet normal 0.281195 0.104327 -0.953963
    outer loop
      vertex 0 0 21.7856
      vertex -31.1878 0 12.5926
      vertex 0 1.69003 21.9705
    endloop
  endfacet
  facet normal 0.281195 0.104327 -0.953963
    outer loop
      vertex -31.2438 1.55934 12.7466
      vertex 0 1.69003 21.9705
      vertex -31.1878 0 12.5926
    endloop
  endfacet
  facet normal 0.281195 0.104327 -0.953963
    outer loop
      vertex 0 1.69003 21.9705
      vertex -31.2438 1.55934 12.7466
      vertex 0 1.98199 22.0024
    endloop
  endfacet
  facet normal 0.281195 -0.104327 -0.953963
    outer loop
      vertex -31.2438 -1.55934 12.7466
      vertex 0 -1.69003 21.9705
      vertex 0 -1.98199 22.0024
    endloop
  endfacet
  facet normal 0.281195 -0.104327 -0.953963
    outer loop
      vertex 0 -1.69003 21.9705
      vertex -31.2438 -1.55934 12.7466
      vertex -31.1878 0 12.5926
    endloop
  endfacet
  facet normal -0.939693 -8.35077e-06 -0.342018
    outer loop
      vertex -34.5456 -7.13292 21.8181
      vertex -35.0355 -6.49519 23.1641
      vertex -34.021 -7.45891 20.377
    endloop
  endfacet
  facet normal -0.939693 0 -0.34202
    outer loop
      vertex -31.2438 -1.55934 12.7466
      vertex -36.3181 0 26.688
      vertex -31.2438 1.55934 12.7466
    endloop
  endfacet
  facet normal -0.38295 -0.308423 0.870761
    outer loop
      vertex 0 -2.0722 42.2999
      vertex -36.262 -1.55934 26.534
      vertex 0 -4.01918 41.6103
    endloop
  endfacet
  facet normal -0.939692 1.1799e-06 -0.342023
    outer loop
      vertex -36.262 -1.55934 26.534
      vertex -36.3181 0 26.688
      vertex -36.0963 -3.05052 26.0787
    endloop
  endfacet
  facet normal -0.129267 0.976265 0.173771
    outer loop
      vertex 0 9.35569 35.0286
      vertex -34.5456 7.13292 21.8181
      vertex 0 9.3336 35.1526
    endloop
  endfacet
  facet normal -0.12927 0.976263 0.173779
    outer loop
      vertex -34.5456 7.13292 21.8181
      vertex 0 9.35569 35.0286
      vertex -34.021 7.45891 20.377
    endloop
  endfacet
  facet normal -0.939693 4.00742e-07 -0.34202
    outer loop
      vertex -31.2438 1.55934 12.7466
      vertex -34.021 7.45891 20.377
      vertex -32.9602 7.13292 17.4624
    endloop
  endfacet
  facet normal -0.939693 2.90487e-07 -0.34202
    outer loop
      vertex -35.8282 -4.40839 25.342
      vertex -36.3181 0 26.688
      vertex -35.0355 -6.49519 23.1641
    endloop
  endfacet
  facet normal 0.195384 -0.667842 -0.718201
    outer loop
      vertex 0 -7.13332 25.0903
      vertex -32.0365 -5.57359 14.9244
      vertex 0 -5.82586 23.8745
    endloop
  endfacet
  facet normal 0.281195 -0.104327 -0.953963
    outer loop
      vertex 0 -1.69003 21.9705
      vertex -31.1878 0 12.5926
      vertex 0 0 21.7856
    endloop
  endfacet
  facet normal -0.939693 -4.00742e-07 -0.34202
    outer loop
      vertex -32.9602 -7.13292 17.4624
      vertex -34.021 -7.45891 20.377
      vertex -31.2438 -1.55934 12.7466
    endloop
  endfacet
  facet normal 0.266357 -0.308422 -0.913197
    outer loop
      vertex 0 -3.61049 22.5524
      vertex -31.2438 -1.55934 12.7466
      vertex 0 -1.98199 22.0024
    endloop
  endfacet
  facet normal -0.0582966 0.998074 -0.021218
    outer loop
      vertex 0 9.66857 30.8439
      vertex -33.4848 7.45891 18.9036
      vertex 0 9.71131 32.8546
    endloop
  endfacet
  facet normal -0.397791 -0.104219 0.911538
    outer loop
      vertex 0 -2.05148 42.3023
      vertex -36.262 -1.55934 26.534
      vertex 0 -2.0722 42.2999
    endloop
  endfacet
  facet normal -0.397788 -0.104327 0.911527
    outer loop
      vertex -36.262 -1.55934 26.534
      vertex 0 -2.05148 42.3023
      vertex -36.3181 0 26.688
    endloop
  endfacet
  facet normal 0.195384 0.667844 -0.718199
    outer loop
      vertex -31.6777 4.40839 13.9386
      vertex 0 5.82586 23.8745
      vertex 0 5.62442 23.6872
    endloop
  endfacet
  facet normal 0.195384 0.667842 -0.718201
    outer loop
      vertex 0 5.82586 23.8745
      vertex -31.6777 4.40839 13.9386
      vertex -32.0365 5.57359 14.9244
    endloop
  endfacet
  facet normal -0.939693 -8.83581e-08 -0.34202
    outer loop
      vertex -31.2438 1.55934 12.7466
      vertex -32.9602 7.13292 17.4624
      vertex -31.4095 3.05052 13.2019
    endloop
  endfacet
  facet normal -0.939693 8.83581e-08 -0.34202
    outer loop
      vertex -31.4095 -3.05052 13.2019
      vertex -32.9602 -7.13292 17.4624
      vertex -31.2438 -1.55934 12.7466
    endloop
  endfacet
  facet normal -0.258944 -0.807459 0.530055
    outer loop
      vertex 0 -7.35384 38.9717
      vertex -35.4693 -5.57359 24.3561
      vertex 0 -8.48581 37.2473
    endloop
  endfacet
  facet normal 0.142351 -0.807459 -0.572492
    outer loop
      vertex 0 -8.20484 26.6015
      vertex -32.0365 -5.57359 14.9244
      vertex 0 -7.13332 25.0903
    endloop
  endfacet
  facet normal -0.311977 -0.667842 0.675764
    outer loop
      vertex 0 -5.86896 40.4392
      vertex -35.4693 -5.57359 24.3561
      vertex 0 -7.35384 38.9717
    endloop
  endfacet
  facet normal -0.939692 2.02359e-06 -0.342022
    outer loop
      vertex -35.4693 -5.57359 24.3561
      vertex -35.8282 -4.40839 25.342
      vertex -35.0355 -6.49519 23.1641
    endloop
  endfacet
  facet normal -0.939693 -2.16403e-07 -0.34202
    outer loop
      vertex -31.2438 1.55934 12.7466
      vertex -36.3181 0 26.688
      vertex -35.0355 6.49519 23.1641
    endloop
  endfacet
  facet normal -0.197141 0.911786 0.360253
    outer loop
      vertex 0 9.3336 35.1526
      vertex -34.5456 7.13292 21.8181
      vertex 0 8.57176 37.0808
    endloop
  endfacet
  facet normal -0.397788 -0.104327 0.911527
    outer loop
      vertex 0 0 42.5371
      vertex -36.3181 0 26.688
      vertex 0 -2.05148 42.3023
    endloop
  endfacet
  facet normal -0.258945 0.807455 0.530061
    outer loop
      vertex 0 8.53646 37.1702
      vertex -35.4693 5.57359 24.3561
      vertex 0 8.48581 37.2473
    endloop
  endfacet
  facet normal -0.258944 0.807459 0.530055
    outer loop
      vertex -35.4693 5.57359 24.3561
      vertex 0 8.53646 37.1702
      vertex -35.0355 6.49519 23.1641
    endloop
  endfacet
  facet normal -0.197138 0.91179 0.360244
    outer loop
      vertex 0 8.57176 37.0808
      vertex -35.0355 6.49519 23.1641
      vertex 0 8.53646 37.1702
    endloop
  endfacet
  facet normal -0.197141 0.911786 0.360253
    outer loop
      vertex -35.0355 6.49519 23.1641
      vertex 0 8.57176 37.0808
      vertex -34.5456 7.13292 21.8181
    endloop
  endfacet
  facet normal -0.12927 -0.976263 0.173779
    outer loop
      vertex 0 -9.35569 35.0286
      vertex -34.021 -7.45891 20.377
      vertex 0 -9.71466 33.0119
    endloop
  endfacet
  facet normal -0.0582954 -0.998074 -0.0212212
    outer loop
      vertex -34.021 -7.45891 20.377
      vertex 0 -9.71131 32.8546
      vertex 0 -9.71466 33.0119
    endloop
  endfacet
  facet normal -0.0582965 -0.998074 -0.0212182
    outer loop
      vertex 0 -9.71131 32.8546
      vertex -34.021 -7.45891 20.377
      vertex -33.4848 -7.45891 18.9036
    endloop
  endfacet
  facet normal 0.142351 0.807459 -0.572492
    outer loop
      vertex 0 7.13332 25.0903
      vertex -32.0365 5.57359 14.9244
      vertex 0 8.20484 26.6015
    endloop
  endfacet
  facet normal 0.195384 0.667842 -0.718201
    outer loop
      vertex 0 5.82586 23.8745
      vertex -32.0365 5.57359 14.9244
      vertex 0 7.13332 25.0903
    endloop
  endfacet
  facet normal -0.939693 3.8204e-07 -0.342019
    outer loop
      vertex -31.6777 -4.40839 13.9386
      vertex -32.9602 -7.13292 17.4624
      vertex -31.4095 -3.05052 13.2019
    endloop
  endfacet
  facet normal 0.266357 -0.308421 -0.913198
    outer loop
      vertex 0 -3.88293 22.6444
      vertex -31.2438 -1.55934 12.7466
      vertex 0 -3.61049 22.5524
    endloop
  endfacet
  facet normal 0.266357 -0.308422 -0.913197
    outer loop
      vertex -31.2438 -1.55934 12.7466
      vertex 0 -3.88293 22.6444
      vertex -31.4095 -3.05052 13.2019
    endloop
  endfacet
  facet normal 0.195384 -0.667844 -0.718199
    outer loop
      vertex 0 -5.82586 23.8745
      vertex -31.6777 -4.40839 13.9386
      vertex 0 -5.62442 23.6872
    endloop
  endfacet
  facet normal 0.195384 -0.667842 -0.718201
    outer loop
      vertex -31.6777 -4.40839 13.9386
      vertex 0 -5.82586 23.8745
      vertex -32.0365 -5.57359 14.9244
    endloop
  endfacet
  facet normal 0.0126765 -0.976263 -0.216215
    outer loop
      vertex 0 -9.66857 30.8439
      vertex -33.4848 -7.45891 18.9036
      vertex 0 -9.24905 28.9497
    endloop
  endfacet
  facet normal 0.237331 -0.499038 -0.833448
    outer loop
      vertex 0 -5.62442 23.6872
      vertex -31.4095 -3.05052 13.2019
      vertex 0 -5.3868 23.5449
    endloop
  endfacet
  facet normal 0.237331 -0.499037 -0.833448
    outer loop
      vertex -31.4095 -3.05052 13.2019
      vertex 0 -5.62442 23.6872
      vertex -31.6777 -4.40839 13.9386
    endloop
  endfacet
  facet normal 0.237331 -0.499036 -0.833449
    outer loop
      vertex 0 -5.3868 23.5449
      vertex -31.4095 -3.05052 13.2019
      vertex 0 -3.88293 22.6444
    endloop
  endfacet
  facet normal -0.311974 -0.667852 0.675756
    outer loop
      vertex 0 -5.83533 40.4724
      vertex -35.4693 -5.57359 24.3561
      vertex 0 -5.86896 40.4392
    endloop
  endfacet
  facet normal -0.311977 -0.667842 0.675764
    outer loop
      vertex -35.4693 -5.57359 24.3561
      vertex 0 -5.83533 40.4724
      vertex -35.8282 -4.40839 25.342
    endloop
  endfacet
  facet normal -0.197138 -0.91179 0.360244
    outer loop
      vertex -35.0355 -6.49519 23.1641
      vertex 0 -8.57176 37.0808
      vertex 0 -8.53646 37.1702
    endloop
  endfacet
  facet normal -0.197141 -0.911786 0.360253
    outer loop
      vertex 0 -8.57176 37.0808
      vertex -35.0355 -6.49519 23.1641
      vertex -34.5456 -7.13292 21.8181
    endloop
  endfacet
  facet normal -0.258945 -0.807455 0.530061
    outer loop
      vertex -35.4693 -5.57359 24.3561
      vertex 0 -8.53646 37.1702
      vertex 0 -8.48581 37.2473
    endloop
  endfacet
  facet normal -0.258944 -0.807459 0.530055
    outer loop
      vertex 0 -8.53646 37.1702
      vertex -35.4693 -5.57359 24.3561
      vertex -35.0355 -6.49519 23.1641
    endloop
  endfacet
  facet normal -0.939693 2.16403e-07 -0.34202
    outer loop
      vertex -35.0355 -6.49519 23.1641
      vertex -36.3181 0 26.688
      vertex -31.2438 -1.55934 12.7466
    endloop
  endfacet
  facet normal -0.939692 -8.25631e-07 -0.34202
    outer loop
      vertex -34.021 -7.45891 20.377
      vertex -35.0355 -6.49519 23.1641
      vertex -31.2438 -1.55934 12.7466
    endloop
  endfacet
  facet normal -0.353929 -0.499012 0.791025
    outer loop
      vertex 0 -5.79662 40.4968
      vertex -35.8282 -4.40839 25.342
      vertex 0 -5.83533 40.4724
    endloop
  endfacet
  facet normal -0.353924 -0.499036 0.791012
    outer loop
      vertex -35.8282 -4.40839 25.342
      vertex 0 -5.79662 40.4968
      vertex -36.0963 -3.05052 26.0787
    endloop
  endfacet
  facet normal -0.939692 1.19435e-06 -0.342023
    outer loop
      vertex -36.0963 -3.05052 26.0787
      vertex -36.3181 0 26.688
      vertex -35.8282 -4.40839 25.342
    endloop
  endfacet
  facet normal -0.397788 0.104327 0.911527
    outer loop
      vertex 0 2.05148 42.3023
      vertex -36.3181 0 26.688
      vertex 0 0 42.5371
    endloop
  endfacet
  facet normal -0.939693 8.35077e-06 -0.342018
    outer loop
      vertex -34.021 7.45891 20.377
      vertex -35.0355 6.49519 23.1641
      vertex -34.5456 7.13292 21.8181
    endloop
  endfacet
  facet normal -0.939692 8.25631e-07 -0.34202
    outer loop
      vertex -31.2438 1.55934 12.7466
      vertex -35.0355 6.49519 23.1641
      vertex -34.021 7.45891 20.377
    endloop
  endfacet
  facet normal 0.266357 0.308422 -0.913197
    outer loop
      vertex 0 1.98199 22.0024
      vertex -31.2438 1.55934 12.7466
      vertex 0 3.61049 22.5524
    endloop
  endfacet
  facet normal 0.0126765 0.976263 -0.216215
    outer loop
      vertex 0 9.24905 28.9497
      vertex -33.4848 7.45891 18.9036
      vertex 0 9.66857 30.8439
    endloop
  endfacet
  facet normal 0.14235 0.807459 -0.572491
    outer loop
      vertex 0 8.20484 26.6015
      vertex -32.4703 6.49519 16.1164
      vertex 0 8.34446 26.7985
    endloop
  endfacet
  facet normal 0.14235 0.807459 -0.572491
    outer loop
      vertex -32.4703 6.49519 16.1164
      vertex 0 8.20484 26.6015
      vertex -32.0365 5.57359 14.9244
    endloop
  endfacet
  facet normal 0.237331 0.499038 -0.833448
    outer loop
      vertex -31.4095 3.05052 13.2019
      vertex 0 5.62442 23.6872
      vertex 0 5.3868 23.5449
    endloop
  endfacet
  facet normal 0.237331 0.499037 -0.833448
    outer loop
      vertex 0 5.62442 23.6872
      vertex -31.4095 3.05052 13.2019
      vertex -31.6777 4.40839 13.9386
    endloop
  endfacet
  facet normal 0.237331 0.499036 -0.833449
    outer loop
      vertex 0 3.88293 22.6444
      vertex -31.4095 3.05052 13.2019
      vertex 0 5.3868 23.5449
    endloop
  endfacet
  facet normal 0.266357 0.308421 -0.913198
    outer loop
      vertex -31.2438 1.55934 12.7466
      vertex 0 3.88293 22.6444
      vertex 0 3.61049 22.5524
    endloop
  endfacet
  facet normal 0.266357 0.308422 -0.913197
    outer loop
      vertex 0 3.88293 22.6444
      vertex -31.2438 1.55934 12.7466
      vertex -31.4095 3.05052 13.2019
    endloop
  endfacet
  facet normal -0.939693 -2.97094e-06 -0.34202
    outer loop
      vertex -33.4848 -7.45891 18.9036
      vertex -34.021 -7.45891 20.377
      vertex -32.9602 -7.13292 17.4624
    endloop
  endfacet
  facet normal 0.0126754 -0.976264 -0.216211
    outer loop
      vertex -33.4848 -7.45891 18.9036
      vertex 0 -9.2033 28.7431
      vertex 0 -9.24905 28.9497
    endloop
  endfacet
  facet normal 0.0126765 -0.976263 -0.216215
    outer loop
      vertex 0 -9.2033 28.7431
      vertex -33.4848 -7.45891 18.9036
      vertex -32.9602 -7.13292 17.4624
    endloop
  endfacet
  facet normal -0.939693 1.14042e-06 -0.342019
    outer loop
      vertex -32.0365 -5.57359 14.9244
      vertex -32.9602 -7.13292 17.4624
      vertex -31.6777 -4.40839 13.9386
    endloop
  endfacet
  facet normal 0.0805475 -0.911786 -0.402689
    outer loop
      vertex 0 -9.2033 28.7431
      vertex -32.9602 -7.13292 17.4624
      vertex 0 -8.44031 27.0155
    endloop
  endfacet
  facet normal 0.080548 -0.911785 -0.402691
    outer loop
      vertex -32.9602 -7.13292 17.4624
      vertex 0 -8.34446 26.7985
      vertex 0 -8.44031 27.0155
    endloop
  endfacet
  facet normal 0.0805477 -0.911786 -0.40269
    outer loop
      vertex 0 -8.34446 26.7985
      vertex -32.9602 -7.13292 17.4624
      vertex -32.4703 -6.49519 16.1164
    endloop
  endfacet
  facet normal -0.197141 -0.911786 0.360253
    outer loop
      vertex 0 -8.57176 37.0808
      vertex -34.5456 -7.13292 21.8181
      vertex 0 -9.3336 35.1526
    endloop
  endfacet
  facet normal -0.353924 -0.499036 0.791012
    outer loop
      vertex 0 -4.04774 41.6002
      vertex -36.0963 -3.05052 26.0787
      vertex 0 -5.79662 40.4968
    endloop
  endfacet
  facet normal -0.382948 -0.308448 0.870753
    outer loop
      vertex 0 -4.01918 41.6103
      vertex -36.0963 -3.05052 26.0787
      vertex 0 -4.04774 41.6002
    endloop
  endfacet
  facet normal -0.38295 -0.308422 0.870761
    outer loop
      vertex -36.0963 -3.05052 26.0787
      vertex 0 -4.01918 41.6103
      vertex -36.262 -1.55934 26.534
    endloop
  endfacet
  facet normal -0.397791 0.104219 0.911538
    outer loop
      vertex -36.262 1.55934 26.534
      vertex 0 2.05148 42.3023
      vertex 0 2.0722 42.2999
    endloop
  endfacet
  facet normal -0.397788 0.104327 0.911527
    outer loop
      vertex 0 2.05148 42.3023
      vertex -36.262 1.55934 26.534
      vertex -36.3181 0 26.688
    endloop
  endfacet
  facet normal -0.38295 0.308423 0.870761
    outer loop
      vertex 0 4.01918 41.6103
      vertex -36.262 1.55934 26.534
      vertex 0 2.0722 42.2999
    endloop
  endfacet
  facet normal -0.939692 -2.02359e-06 -0.342022
    outer loop
      vertex -35.0355 6.49519 23.1641
      vertex -35.8282 4.40839 25.342
      vertex -35.4693 5.57359 24.3561
    endloop
  endfacet
  facet normal -0.311974 0.667852 0.675756
    outer loop
      vertex -35.4693 5.57359 24.3561
      vertex 0 5.83533 40.4724
      vertex 0 5.86896 40.4392
    endloop
  endfacet
  facet normal -0.311977 0.667842 0.675764
    outer loop
      vertex 0 5.83533 40.4724
      vertex -35.4693 5.57359 24.3561
      vertex -35.8282 4.40839 25.342
    endloop
  endfacet
  facet normal -0.12927 0.976263 0.173779
    outer loop
      vertex 0 9.71466 33.0119
      vertex -34.021 7.45891 20.377
      vertex 0 9.35569 35.0286
    endloop
  endfacet
  facet normal -0.939693 2.97094e-06 -0.34202
    outer loop
      vertex -32.9602 7.13292 17.4624
      vertex -34.021 7.45891 20.377
      vertex -33.4848 7.45891 18.9036
    endloop
  endfacet
  facet normal -0.0582954 0.998074 -0.0212212
    outer loop
      vertex 0 9.71131 32.8546
      vertex -34.021 7.45891 20.377
      vertex 0 9.71466 33.0119
    endloop
  endfacet
  facet normal -0.0582965 0.998074 -0.0212182
    outer loop
      vertex -34.021 7.45891 20.377
      vertex 0 9.71131 32.8546
      vertex -33.4848 7.45891 18.9036
    endloop
  endfacet
  facet normal 0.0805475 0.911786 -0.402689
    outer loop
      vertex 0 8.44031 27.0155
      vertex -32.9602 7.13292 17.4624
      vertex 0 9.2033 28.7431
    endloop
  endfacet
  facet normal 0.0126754 0.976264 -0.216211
    outer loop
      vertex 0 9.2033 28.7431
      vertex -33.4848 7.45891 18.9036
      vertex 0 9.24905 28.9497
    endloop
  endfacet
  facet normal 0.0126765 0.976263 -0.216215
    outer loop
      vertex -33.4848 7.45891 18.9036
      vertex 0 9.2033 28.7431
      vertex -32.9602 7.13292 17.4624
    endloop
  endfacet
  facet normal -0.939693 -1.67081e-06 -0.342019
    outer loop
      vertex -32.0365 5.57359 14.9244
      vertex -32.9602 7.13292 17.4624
      vertex -32.4703 6.49519 16.1164
    endloop
  endfacet
  facet normal 0.080548 0.911785 -0.402691
    outer loop
      vertex 0 8.34446 26.7985
      vertex -32.9602 7.13292 17.4624
      vertex 0 8.44031 27.0155
    endloop
  endfacet
  facet normal 0.0805477 0.911786 -0.40269
    outer loop
      vertex -32.9602 7.13292 17.4624
      vertex 0 8.34446 26.7985
      vertex -32.4703 6.49519 16.1164
    endloop
  endfacet
  facet normal -0.939693 -3.8204e-07 -0.342019
    outer loop
      vertex -31.4095 3.05052 13.2019
      vertex -32.9602 7.13292 17.4624
      vertex -31.6777 4.40839 13.9386
    endloop
  endfacet
  facet normal -0.939693 -1.14042e-06 -0.342019
    outer loop
      vertex -31.6777 4.40839 13.9386
      vertex -32.9602 7.13292 17.4624
      vertex -32.0365 5.57359 14.9244
    endloop
  endfacet
  facet normal -0.939693 -2.90487e-07 -0.34202
    outer loop
      vertex -35.0355 6.49519 23.1641
      vertex -36.3181 0 26.688
      vertex -35.8282 4.40839 25.342
    endloop
  endfacet
  facet normal -0.353929 0.499012 0.791025
    outer loop
      vertex -35.8282 4.40839 25.342
      vertex 0 5.79662 40.4968
      vertex 0 5.83533 40.4724
    endloop
  endfacet
  facet normal -0.353924 0.499036 0.791012
    outer loop
      vertex 0 5.79662 40.4968
      vertex -35.8282 4.40839 25.342
      vertex -36.0963 3.05052 26.0787
    endloop
  endfacet
  facet normal -0.382948 0.308448 0.870753
    outer loop
      vertex -36.0963 3.05052 26.0787
      vertex 0 4.01918 41.6103
      vertex 0 4.04774 41.6002
    endloop
  endfacet
  facet normal -0.38295 0.308422 0.870761
    outer loop
      vertex 0 4.01918 41.6103
      vertex -36.0963 3.05052 26.0787
      vertex -36.262 1.55934 26.534
    endloop
  endfacet
  facet normal -0.353924 0.499036 0.791012
    outer loop
      vertex 0 5.79662 40.4968
      vertex -36.0963 3.05052 26.0787
      vertex 0 4.04774 41.6002
    endloop
  endfacet
  facet normal -0.939693 1.67081e-06 -0.342019
    outer loop
      vertex -32.4703 -6.49519 16.1164
      vertex -32.9602 -7.13292 17.4624
      vertex -32.0365 -5.57359 14.9244
    endloop
  endfacet
  facet normal 0.14235 -0.807459 -0.572491
    outer loop
      vertex -32.4703 -6.49519 16.1164
      vertex 0 -8.20484 26.6015
      vertex 0 -8.34446 26.7985
    endloop
  endfacet
  facet normal 0.14235 -0.807459 -0.572491
    outer loop
      vertex 0 -8.20484 26.6015
      vertex -32.4703 -6.49519 16.1164
      vertex -32.0365 -5.57359 14.9244
    endloop
  endfacet
  facet normal -0.939692 -1.19435e-06 -0.342023
    outer loop
      vertex -35.8282 4.40839 25.342
      vertex -36.3181 0 26.688
      vertex -36.0963 3.05052 26.0787
    endloop
  endfacet
  facet normal -0.939692 -1.1799e-06 -0.342023
    outer loop
      vertex -36.0963 3.05052 26.0787
      vertex -36.3181 0 26.688
      vertex -36.262 1.55934 26.534
    endloop
  endfacet
  facet normal -0.311977 0.667842 0.675764
    outer loop
      vertex 0 7.35384 38.9717
      vertex -35.4693 5.57359 24.3561
      vertex 0 5.86896 40.4392
    endloop
  endfacet
  facet normal -0.258944 0.807459 0.530055
    outer loop
      vertex 0 8.48581 37.2473
      vertex -35.4693 5.57359 24.3561
      vertex 0 7.35384 38.9717
    endloop
  endfacet
endsolid OpenSCAD_Model
