solid OpenSCAD_Model
  facet normal -0.165922 0.976788 0.135482
    outer loop
      vertex 49.4822 -9 1.26071
      vertex 71.7346 -12.2733 52.1125
      vertex 71.8104 -12.2555 52.0772
    endloop
  endfacet
  facet normal -0.165913 0.97679 0.135477
    outer loop
      vertex 47.0815 -9.23292 0
      vertex 49.4822 -9 1.26071
      vertex 48.4528 -9 0
    endloop
  endfacet
  facet normal -0.165913 0.97679 0.135478
    outer loop
      vertex 49.4822 -9 1.26071
      vertex 47.0815 -9.23292 0
      vertex 71.7346 -12.2733 52.1125
    endloop
  endfacet
  facet normal 0.88301 0.308593 -0.353643
    outer loop
      vertex 59.6492 -2.64716 57.748
      vertex 36.253 -1.87975 0
      vertex 59.6252 -2.56582 57.7592
    endloop
  endfacet
  facet normal 0.883012 0.308588 -0.353644
    outer loop
      vertex 36.253 -1.87975 0
      vertex 59.6492 -2.64716 57.748
      vertex 36.8696 -3.64397 0
    endloop
  endfacet
  facet normal 0.210428 -0.97679 -0.0400133
    outer loop
      vertex 44.9456 9.18531 0
      vertex 69.3205 12.2555 53.2382
      vertex 43.0318 8.77304 0
    endloop
  endfacet
  facet normal 0.210435 -0.976789 -0.0400163
    outer loop
      vertex 69.3205 12.2555 53.2382
      vertex 44.9456 9.18531 0
      vertex 69.3963 12.2733 53.2029
    endloop
  endfacet
  facet normal -0.650326 0.668201 0.361363
    outer loop
      vertex 77.325 -9 47.5477
      vertex 78 -9.1668 49.0709
      vertex 78 -9.09349 48.9354
    endloop
  endfacet
  facet normal -0.650329 0.668198 0.361364
    outer loop
      vertex 78 -9.1668 49.0709
      vertex 77.325 -9 47.5477
      vertex 76.0752 -9 45.2985
    endloop
  endfacet
  facet normal -0.345841 0.912287 0.219379
    outer loop
      vertex 59.7456 -9 17.1593
      vertex 76.087 -10.7223 50.083
      vertex 76.1578 -10.6875 50.0499
    endloop
  endfacet
  facet normal -0.345859 0.912278 0.219388
    outer loop
      vertex 76.087 -10.7223 50.083
      vertex 59.7456 -9 17.1593
      vertex 52.4949 -9 5.72871
    endloop
  endfacet
  facet normal -0.509719 0.807894 0.295794
    outer loop
      vertex 78 -9.1668 49.0709
      vertex 76.2205 -10.6373 50.0207
      vertex 78 -9.21073 49.1909
    endloop
  endfacet
  facet normal -0.509718 0.807894 0.295797
    outer loop
      vertex 76.0752 -9 45.2985
      vertex 76.2205 -10.6373 50.0207
      vertex 78 -9.1668 49.0709
    endloop
  endfacet
  facet normal -0.509718 0.807894 0.295797
    outer loop
      vertex 76.2205 -10.6373 50.0207
      vertex 76.0752 -9 45.2985
      vertex 65.0999 -9 26.3858
    endloop
  endfacet
  facet normal -0.650325 0.668202 0.361363
    outer loop
      vertex 78 -9.09349 48.9354
      vertex 78 -9 48.7625
      vertex 77.325 -9 47.5477
    endloop
  endfacet
  facet normal 0.55421 0.807913 -0.200321
    outer loop
      vertex 40.9646 -7.92126 0
      vertex 64.9104 -10.6373 55.2947
      vertex 64.9731 -10.6875 55.2654
    endloop
  endfacet
  facet normal 0.554233 0.807894 -0.200332
    outer loop
      vertex 64.9104 -10.6373 55.2947
      vertex 40.9646 -7.92126 0
      vertex 39.3581 -6.81913 0
    endloop
  endfacet
  facet normal 0.390375 0.912278 -0.123924
    outer loop
      vertex 42.8775 -8.73979 0
      vertex 65.0439 -10.7223 55.2324
      vertex 67.1092 -11.7369 54.2694
    endloop
  endfacet
  facet normal 0.390377 0.912277 -0.123924
    outer loop
      vertex 65.0439 -10.7223 55.2324
      vertex 42.8775 -8.73979 0
      vertex 42.7382 -8.6802 0
    endloop
  endfacet
  facet normal -0.345859 0.912278 0.219388
    outer loop
      vertex 52.4949 -9 5.72871
      vertex 74.0217 -11.7369 51.046
      vertex 76.087 -10.7223 50.083
    endloop
  endfacet
  facet normal -0.345859 0.912278 0.219388
    outer loop
      vertex 74.0217 -11.7369 51.046
      vertex 52.4949 -9 5.72871
      vertex 50.2819 -9 2.24004
    endloop
  endfacet
  facet normal -0.165913 0.97679 0.135478
    outer loop
      vertex 50.2819 -9 2.24004
      vertex 71.8104 -12.2555 52.0772
      vertex 74.0217 -11.7369 51.046
    endloop
  endfacet
  facet normal -0.165913 0.97679 0.135478
    outer loop
      vertex 71.8104 -12.2555 52.0772
      vertex 50.2819 -9 2.24004
      vertex 49.4822 -9 1.26071
    endloop
  endfacet
  facet normal -0.509721 0.807891 0.295798
    outer loop
      vertex 65.0999 -9 26.3858
      vertex 76.1578 -10.6875 50.0499
      vertex 76.2205 -10.6373 50.0207
    endloop
  endfacet
  facet normal -0.509718 0.807893 0.295797
    outer loop
      vertex 76.1578 -10.6875 50.0499
      vertex 65.0999 -9 26.3858
      vertex 59.7456 -9 17.1593
    endloop
  endfacet
  facet normal 0.0222579 0.998612 0.0477322
    outer loop
      vertex 47.0815 -9.23292 0
      vertex 69.3963 -12.2733 53.2029
      vertex 71.7346 -12.2733 52.1125
    endloop
  endfacet
  facet normal 0.0222576 0.998612 0.0477322
    outer loop
      vertex 69.3963 -12.2733 53.2029
      vertex 47.0815 -9.23292 0
      vertex 44.9456 -9.18531 0
    endloop
  endfacet
  facet normal 0.806054 0.499307 -0.317758
    outer loop
      vertex 61.5169 -7.2538 56.8771
      vertex 37.8759 -5.28551 0
      vertex 60.3865 -5.09356 57.4042
    endloop
  endfacet
  facet normal 0.806059 0.499296 -0.31776
    outer loop
      vertex 37.8759 -5.28551 0
      vertex 61.5169 -7.2538 56.8771
      vertex 37.9071 -5.33601 0
    endloop
  endfacet
  facet normal 0.806059 -0.499296 -0.31776
    outer loop
      vertex 61.5169 7.2538 56.8771
      vertex 37.8759 5.28551 0
      vertex 37.9071 5.33601 0
    endloop
  endfacet
  facet normal 0.806054 -0.499307 -0.317758
    outer loop
      vertex 37.8759 5.28551 0
      vertex 61.5169 7.2538 56.8771
      vertex 60.3865 5.09356 57.4042
    endloop
  endfacet
  facet normal -0.345859 -0.912278 0.219388
    outer loop
      vertex 74.0217 11.7369 51.046
      vertex 52.4949 9 5.72871
      vertex 76.087 10.7223 50.083
    endloop
  endfacet
  facet normal -0.345859 -0.912278 0.219388
    outer loop
      vertex 52.4949 9 5.72871
      vertex 74.0217 11.7369 51.046
      vertex 50.2819 9 2.24004
    endloop
  endfacet
  facet normal 0.0222576 -0.998612 0.0477322
    outer loop
      vertex 47.0815 9.23292 0
      vertex 69.3963 12.2733 53.2029
      vertex 44.9456 9.18531 0
    endloop
  endfacet
  facet normal 0.0222579 -0.998612 0.0477322
    outer loop
      vertex 69.3963 12.2733 53.2029
      vertex 47.0815 9.23292 0
      vertex 71.7346 12.2733 52.1125
    endloop
  endfacet
  facet normal 0.806059 0.499297 -0.31776
    outer loop
      vertex 60.3865 -5.09356 57.4042
      vertex 36.8832 -3.68309 0
      vertex 60.3478 -5.0195 57.4223
    endloop
  endfacet
  facet normal 0.806055 0.499305 -0.317758
    outer loop
      vertex 36.8832 -3.68309 0
      vertex 60.3865 -5.09356 57.4042
      vertex 37.8759 -5.28551 0
    endloop
  endfacet
  facet normal 0.883012 0.308588 -0.353644
    outer loop
      vertex 60.3478 -5.0195 57.4223
      vertex 36.8696 -3.64397 0
      vertex 59.6492 -2.64716 57.748
    endloop
  endfacet
  facet normal 0.882997 0.308637 -0.353637
    outer loop
      vertex 36.8696 -3.64397 0
      vertex 60.3478 -5.0195 57.4223
      vertex 36.8832 -3.68309 0
    endloop
  endfacet
  facet normal 0.210428 0.97679 -0.0400132
    outer loop
      vertex 43.0318 -8.77304 0
      vertex 67.1092 -11.7369 54.2694
      vertex 69.3205 -12.2555 53.2382
    endloop
  endfacet
  facet normal 0.210431 0.976789 -0.0400145
    outer loop
      vertex 67.1092 -11.7369 54.2694
      vertex 43.0318 -8.77304 0
      vertex 42.8775 -8.73979 0
    endloop
  endfacet
  facet normal 0.210435 0.976789 -0.0400163
    outer loop
      vertex 44.9456 -9.18531 0
      vertex 69.3205 -12.2555 53.2382
      vertex 69.3963 -12.2733 53.2029
    endloop
  endfacet
  facet normal 0.210428 0.97679 -0.0400133
    outer loop
      vertex 69.3205 -12.2555 53.2382
      vertex 44.9456 -9.18531 0
      vertex 43.0318 -8.77304 0
    endloop
  endfacet
  facet normal 0.390375 0.912277 -0.123924
    outer loop
      vertex 42.7382 -8.6802 0
      vertex 64.9731 -10.6875 55.2654
      vertex 65.0439 -10.7223 55.2324
    endloop
  endfacet
  facet normal 0.390375 0.912278 -0.123924
    outer loop
      vertex 64.9731 -10.6875 55.2654
      vertex 42.7382 -8.6802 0
      vertex 40.9646 -7.92126 0
    endloop
  endfacet
  facet normal 0.554234 0.807893 -0.200332
    outer loop
      vertex 39.3581 -6.81913 0
      vertex 63.0815 -9.17108 56.1475
      vertex 64.9104 -10.6373 55.2947
    endloop
  endfacet
  facet normal 0.554228 0.807898 -0.20033
    outer loop
      vertex 63.0815 -9.17108 56.1475
      vertex 39.3581 -6.81913 0
      vertex 39.2855 -6.76935 0
    endloop
  endfacet
  facet normal 0.922346 0.104424 -0.371986
    outer loop
      vertex 59.3808 0 57.8732
      vertex 36.0434 -0.0270225 0
      vertex 36.0403 0 0
    endloop
  endfacet
  facet normal 0.92235 0.104383 -0.371988
    outer loop
      vertex 36.0434 -0.0270225 0
      vertex 59.3808 0 57.8732
      vertex 59.6171 -2.48076 57.763
    endloop
  endfacet
  facet normal 0.554233 -0.807894 -0.200332
    outer loop
      vertex 40.9646 7.92126 0
      vertex 64.9104 10.6373 55.2947
      vertex 39.3581 6.81913 0
    endloop
  endfacet
  facet normal 0.55421 -0.807913 -0.200321
    outer loop
      vertex 64.9104 10.6373 55.2947
      vertex 40.9646 7.92126 0
      vertex 64.9731 10.6875 55.2654
    endloop
  endfacet
  facet normal 0.694841 -0.668202 -0.265899
    outer loop
      vertex 37.9071 5.33601 0
      vertex 63.0296 9.10753 56.1717
      vertex 61.5169 7.2538 56.8771
    endloop
  endfacet
  facet normal 0.694841 -0.668202 -0.265899
    outer loop
      vertex 63.0296 9.10753 56.1717
      vertex 37.9071 5.33601 0
      vertex 37.9499 5.38047 0
    endloop
  endfacet
  facet normal 0.390375 -0.912278 -0.123924
    outer loop
      vertex 42.7382 8.6802 0
      vertex 64.9731 10.6875 55.2654
      vertex 40.9646 7.92126 0
    endloop
  endfacet
  facet normal 0.390375 -0.912277 -0.123924
    outer loop
      vertex 64.9731 10.6875 55.2654
      vertex 42.7382 8.6802 0
      vertex 65.0439 10.7223 55.2324
    endloop
  endfacet
  facet normal -0.650325 -0.668202 0.361363
    outer loop
      vertex 78 9 48.7625
      vertex 78 9.09349 48.9354
      vertex 77.325 9 47.5477
    endloop
  endfacet
  facet normal -0.165913 -0.97679 0.135478
    outer loop
      vertex 71.8104 12.2555 52.0772
      vertex 50.2819 9 2.24004
      vertex 74.0217 11.7369 51.046
    endloop
  endfacet
  facet normal -0.165913 -0.97679 0.135478
    outer loop
      vertex 50.2819 9 2.24004
      vertex 71.8104 12.2555 52.0772
      vertex 49.4822 9 1.26071
    endloop
  endfacet
  facet normal 0.694838 0.668206 -0.265897
    outer loop
      vertex 63.0815 -9.17108 56.1475
      vertex 37.9499 -5.38047 0
      vertex 63.0296 -9.10753 56.1717
    endloop
  endfacet
  facet normal 0.694841 0.668202 -0.265899
    outer loop
      vertex 37.9499 -5.38047 0
      vertex 63.0815 -9.17108 56.1475
      vertex 39.2855 -6.76935 0
    endloop
  endfacet
  facet normal 0.694841 0.668202 -0.265899
    outer loop
      vertex 63.0296 -9.10753 56.1717
      vertex 37.9071 -5.33601 0
      vertex 61.5169 -7.2538 56.8771
    endloop
  endfacet
  facet normal 0.694841 0.668202 -0.265899
    outer loop
      vertex 37.9071 -5.33601 0
      vertex 63.0296 -9.10753 56.1717
      vertex 37.9499 -5.38047 0
    endloop
  endfacet
  facet normal 0.390377 -0.912277 -0.123924
    outer loop
      vertex 42.8775 8.73979 0
      vertex 65.0439 10.7223 55.2324
      vertex 42.7382 8.6802 0
    endloop
  endfacet
  facet normal 0.390375 -0.912278 -0.123924
    outer loop
      vertex 65.0439 10.7223 55.2324
      vertex 42.8775 8.73979 0
      vertex 67.1092 11.7369 54.2694
    endloop
  endfacet
  facet normal 0.210431 -0.976789 -0.0400145
    outer loop
      vertex 43.0318 8.77304 0
      vertex 67.1092 11.7369 54.2694
      vertex 42.8775 8.73979 0
    endloop
  endfacet
  facet normal 0.210428 -0.97679 -0.0400132
    outer loop
      vertex 67.1092 11.7369 54.2694
      vertex 43.0318 8.77304 0
      vertex 69.3205 12.2555 53.2382
    endloop
  endfacet
  facet normal 0.88301 -0.308593 -0.353643
    outer loop
      vertex 36.253 1.87975 0
      vertex 59.6492 2.64716 57.748
      vertex 59.6252 2.56582 57.7592
    endloop
  endfacet
  facet normal 0.883012 -0.308588 -0.353644
    outer loop
      vertex 59.6492 2.64716 57.748
      vertex 36.253 1.87975 0
      vertex 36.8696 3.64397 0
    endloop
  endfacet
  facet normal 0.92235 -0.104383 -0.371988
    outer loop
      vertex 59.3808 0 57.8732
      vertex 36.0434 0.0270225 0
      vertex 59.6171 2.48076 57.763
    endloop
  endfacet
  facet normal 0.922346 -0.104424 -0.371986
    outer loop
      vertex 36.0434 0.0270225 0
      vertex 59.3808 0 57.8732
      vertex 36.0403 0 0
    endloop
  endfacet
  facet normal 0.922349 -0.104398 -0.371987
    outer loop
      vertex 59.6171 2.48076 57.763
      vertex 36.253 1.87975 0
      vertex 59.6252 2.56582 57.7592
    endloop
  endfacet
  facet normal 0.92235 -0.104383 -0.371988
    outer loop
      vertex 36.253 1.87975 0
      vertex 59.6171 2.48076 57.763
      vertex 36.0434 0.0270225 0
    endloop
  endfacet
  facet normal 0.694838 -0.668206 -0.265897
    outer loop
      vertex 37.9499 5.38047 0
      vertex 63.0815 9.17108 56.1475
      vertex 63.0296 9.10753 56.1717
    endloop
  endfacet
  facet normal 0.694841 -0.668202 -0.265899
    outer loop
      vertex 63.0815 9.17108 56.1475
      vertex 37.9499 5.38047 0
      vertex 39.2855 6.76935 0
    endloop
  endfacet
  facet normal 0.554228 -0.807898 -0.20033
    outer loop
      vertex 39.3581 6.81913 0
      vertex 63.0815 9.17108 56.1475
      vertex 39.2855 6.76935 0
    endloop
  endfacet
  facet normal 0.554234 -0.807893 -0.200332
    outer loop
      vertex 63.0815 9.17108 56.1475
      vertex 39.3581 6.81913 0
      vertex 64.9104 10.6373 55.2947
    endloop
  endfacet
  facet normal -0.345841 -0.912287 0.219379
    outer loop
      vertex 76.087 10.7223 50.083
      vertex 59.7456 9 17.1593
      vertex 76.1578 10.6875 50.0499
    endloop
  endfacet
  facet normal -0.345859 -0.912278 0.219388
    outer loop
      vertex 59.7456 9 17.1593
      vertex 76.087 10.7223 50.083
      vertex 52.4949 9 5.72871
    endloop
  endfacet
  facet normal 0.882997 -0.308637 -0.353637
    outer loop
      vertex 60.3478 5.0195 57.4223
      vertex 36.8696 3.64397 0
      vertex 36.8832 3.68309 0
    endloop
  endfacet
  facet normal 0.883012 -0.308588 -0.353644
    outer loop
      vertex 36.8696 3.64397 0
      vertex 60.3478 5.0195 57.4223
      vertex 59.6492 2.64716 57.748
    endloop
  endfacet
  facet normal 0.806059 -0.499297 -0.31776
    outer loop
      vertex 36.8832 3.68309 0
      vertex 60.3865 5.09356 57.4042
      vertex 60.3478 5.0195 57.4223
    endloop
  endfacet
  facet normal 0.806055 -0.499305 -0.317758
    outer loop
      vertex 60.3865 5.09356 57.4042
      vertex 36.8832 3.68309 0
      vertex 37.8759 5.28551 0
    endloop
  endfacet
  facet normal 0.92235 0.104383 -0.371988
    outer loop
      vertex 59.6171 -2.48076 57.763
      vertex 36.253 -1.87975 0
      vertex 36.0434 -0.0270225 0
    endloop
  endfacet
  facet normal 0.922349 0.104398 -0.371987
    outer loop
      vertex 36.253 -1.87975 0
      vertex 59.6171 -2.48076 57.763
      vertex 59.6252 -2.56582 57.7592
    endloop
  endfacet
  facet normal -0.509719 -0.807894 0.295794
    outer loop
      vertex 76.2205 10.6373 50.0207
      vertex 78 9.1668 49.0709
      vertex 78 9.21073 49.1909
    endloop
  endfacet
  facet normal -0.509718 -0.807894 0.295797
    outer loop
      vertex 76.2205 10.6373 50.0207
      vertex 76.0752 9 45.2985
      vertex 78 9.1668 49.0709
    endloop
  endfacet
  facet normal -0.509718 -0.807894 0.295797
    outer loop
      vertex 76.0752 9 45.2985
      vertex 76.2205 10.6373 50.0207
      vertex 65.0999 9 26.3858
    endloop
  endfacet
  facet normal -0.650326 -0.668201 0.361363
    outer loop
      vertex 78 9.1668 49.0709
      vertex 77.325 9 47.5477
      vertex 78 9.09349 48.9354
    endloop
  endfacet
  facet normal -0.650329 -0.668198 0.361364
    outer loop
      vertex 77.325 9 47.5477
      vertex 78 9.1668 49.0709
      vertex 76.0752 9 45.2985
    endloop
  endfacet
  facet normal -0.165922 -0.976788 0.135482
    outer loop
      vertex 71.7346 12.2733 52.1125
      vertex 49.4822 9 1.26071
      vertex 71.8104 12.2555 52.0772
    endloop
  endfacet
  facet normal -0.165913 -0.97679 0.135478
    outer loop
      vertex 47.0815 9.23292 0
      vertex 49.4822 9 1.26071
      vertex 71.7346 12.2733 52.1125
    endloop
  endfacet
  facet normal -0.165913 -0.97679 0.135477
    outer loop
      vertex 49.4822 9 1.26071
      vertex 47.0815 9.23292 0
      vertex 48.4528 9 0
    endloop
  endfacet
  facet normal -0.509721 -0.807891 0.295798
    outer loop
      vertex 76.1578 10.6875 50.0499
      vertex 65.0999 9 26.3858
      vertex 76.2205 10.6373 50.0207
    endloop
  endfacet
  facet normal -0.509718 -0.807893 0.295797
    outer loop
      vertex 65.0999 9 26.3858
      vertex 76.1578 10.6875 50.0499
      vertex 59.7456 9 17.1593
    endloop
  endfacet
  facet normal 0 -1 0
    outer loop
      vertex 78 9 38.6011
      vertex 77.325 9 47.5477
      vertex 76.0752 9 45.2985
    endloop
  endfacet
  facet normal 0 -1 0
    outer loop
      vertex 77.325 9 47.5477
      vertex 78 9 38.6011
      vertex 78 9 48.7625
    endloop
  endfacet
  facet normal 0 -1 0
    outer loop
      vertex 65.0999 9 26.3858
      vertex 78 9 38.6011
      vertex 76.0752 9 45.2985
    endloop
  endfacet
  facet normal 0 -1 0
    outer loop
      vertex 60 9 0
      vertex 65.0999 9 26.3858
      vertex 59.7456 9 17.1593
    endloop
  endfacet
  facet normal 0 -1 0
    outer loop
      vertex 60 9 0
      vertex 59.7456 9 17.1593
      vertex 52.4949 9 5.72871
    endloop
  endfacet
  facet normal 0 -1 0
    outer loop
      vertex 60 9 0
      vertex 52.4949 9 5.72871
      vertex 50.2819 9 2.24004
    endloop
  endfacet
  facet normal 0 -1 0
    outer loop
      vertex 60 9 0
      vertex 49.4822 9 1.26071
      vertex 48.4528 9 0
    endloop
  endfacet
  facet normal 0 -1 -0
    outer loop
      vertex 65.0999 9 26.3858
      vertex 60 9 0
      vertex 78 9 38.6011
    endloop
  endfacet
  facet normal 0 -1 0
    outer loop
      vertex 49.4822 9 1.26071
      vertex 60 9 0
      vertex 50.2819 9 2.24004
    endloop
  endfacet
  facet normal 0 1 -0
    outer loop
      vertex 78 -9 38.6011
      vertex 77.325 -9 47.5477
      vertex 78 -9 48.7625
    endloop
  endfacet
  facet normal 0 1 0
    outer loop
      vertex 77.325 -9 47.5477
      vertex 78 -9 38.6011
      vertex 76.0752 -9 45.2985
    endloop
  endfacet
  facet normal 0 1 0
    outer loop
      vertex 78 -9 38.6011
      vertex 65.0999 -9 26.3858
      vertex 76.0752 -9 45.2985
    endloop
  endfacet
  facet normal 0 1 0
    outer loop
      vertex 60 -9 0
      vertex 65.0999 -9 26.3858
      vertex 78 -9 38.6011
    endloop
  endfacet
  facet normal 0 1 0
    outer loop
      vertex 65.0999 -9 26.3858
      vertex 60 -9 0
      vertex 59.7456 -9 17.1593
    endloop
  endfacet
  facet normal 0 1 0
    outer loop
      vertex 59.7456 -9 17.1593
      vertex 60 -9 0
      vertex 52.4949 -9 5.72871
    endloop
  endfacet
  facet normal 0 1 0
    outer loop
      vertex 52.4949 -9 5.72871
      vertex 60 -9 0
      vertex 50.2819 -9 2.24004
    endloop
  endfacet
  facet normal 0 1 0
    outer loop
      vertex 60 -9 0
      vertex 49.4822 -9 1.26071
      vertex 50.2819 -9 2.24004
    endloop
  endfacet
  facet normal 0 1 0
    outer loop
      vertex 49.4822 -9 1.26071
      vertex 60 -9 0
      vertex 48.4528 -9 0
    endloop
  endfacet
  facet normal 0.422618 0 0.906308
    outer loop
      vertex 78 15 49.1909
      vertex 76.2205 10.6373 50.0207
      vertex 78 9.21073 49.1909
    endloop
  endfacet
  facet normal 0.422647 -1.41424e-05 0.906295
    outer loop
      vertex 78 15 49.1909
      vertex 76.1578 10.6875 50.0499
      vertex 76.2205 10.6373 50.0207
    endloop
  endfacet
  facet normal 0.422568 2.70246e-05 0.906331
    outer loop
      vertex 78 15 49.1909
      vertex 76.087 10.7223 50.083
      vertex 76.1578 10.6875 50.0499
    endloop
  endfacet
  facet normal 0.422619 -1.05367e-06 0.906307
    outer loop
      vertex 78 15 49.1909
      vertex 74.0217 11.7369 51.046
      vertex 76.087 10.7223 50.083
    endloop
  endfacet
  facet normal 0.422618 3.54989e-07 0.906308
    outer loop
      vertex 78 15 49.1909
      vertex 71.8104 12.2555 52.0772
      vertex 74.0217 11.7369 51.046
    endloop
  endfacet
  facet normal 0.422609 2.69498e-05 0.906312
    outer loop
      vertex 78 15 49.1909
      vertex 71.7346 12.2733 52.1125
      vertex 71.8104 12.2555 52.0772
    endloop
  endfacet
  facet normal 0.422618 2.17275e-07 0.906308
    outer loop
      vertex 78 15 49.1909
      vertex 69.3963 12.2733 53.2029
      vertex 71.7346 12.2733 52.1125
    endloop
  endfacet
  facet normal 0.422618 -4.23134e-07 0.906308
    outer loop
      vertex 54.8198 15 60
      vertex 69.3963 12.2733 53.2029
      vertex 78 15 49.1909
    endloop
  endfacet
  facet normal 0.422628 6.49091e-05 0.906303
    outer loop
      vertex 69.3963 12.2733 53.2029
      vertex 54.8198 15 60
      vertex 69.3205 12.2555 53.2382
    endloop
  endfacet
  facet normal 0.422617 -6.89638e-07 0.906308
    outer loop
      vertex 54.8198 15 60
      vertex 59.6492 2.64716 57.748
      vertex 60.3478 5.0195 57.4223
    endloop
  endfacet
  facet normal 0.422617 -3.84813e-07 0.906308
    outer loop
      vertex 59.6171 2.48076 57.763
      vertex 54.8198 15 60
      vertex 59.3808 0 57.8732
    endloop
  endfacet
  facet normal 0.422657 1.83304e-05 0.90629
    outer loop
      vertex 59.6252 2.56582 57.7592
      vertex 54.8198 15 60
      vertex 59.6171 2.48076 57.763
    endloop
  endfacet
  facet normal 0.422621 1.27862e-06 0.906306
    outer loop
      vertex 59.6492 2.64716 57.748
      vertex 54.8198 15 60
      vertex 59.6252 2.56582 57.7592
    endloop
  endfacet
  facet normal 0.422646 1.88167e-05 0.906295
    outer loop
      vertex 60.3865 5.09356 57.4042
      vertex 54.8198 15 60
      vertex 60.3478 5.0195 57.4223
    endloop
  endfacet
  facet normal 0.422618 -3.4123e-07 0.906308
    outer loop
      vertex 61.5169 7.2538 56.8771
      vertex 54.8198 15 60
      vertex 60.3865 5.09356 57.4042
    endloop
  endfacet
  facet normal 0.422618 -2.76255e-07 0.906308
    outer loop
      vertex 63.0296 9.10753 56.1717
      vertex 54.8198 15 60
      vertex 61.5169 7.2538 56.8771
    endloop
  endfacet
  facet normal 0.42262 2.8602e-06 0.906307
    outer loop
      vertex 63.0815 9.17108 56.1475
      vertex 54.8198 15 60
      vertex 63.0296 9.10753 56.1717
    endloop
  endfacet
  facet normal 0.422619 1.07334e-06 0.906308
    outer loop
      vertex 64.9104 10.6373 55.2947
      vertex 54.8198 15 60
      vertex 63.0815 9.17108 56.1475
    endloop
  endfacet
  facet normal 0.422601 -4.91928e-05 0.906316
    outer loop
      vertex 64.9731 10.6875 55.2654
      vertex 54.8198 15 60
      vertex 64.9104 10.6373 55.2947
    endloop
  endfacet
  facet normal 0.422626 2.1393e-05 0.906304
    outer loop
      vertex 65.0439 10.7223 55.2324
      vertex 54.8198 15 60
      vertex 64.9731 10.6875 55.2654
    endloop
  endfacet
  facet normal 0.422618 8.84925e-09 0.906308
    outer loop
      vertex 67.1092 11.7369 54.2694
      vertex 54.8198 15 60
      vertex 65.0439 10.7223 55.2324
    endloop
  endfacet
  facet normal 0.422618 -1.51161e-07 0.906308
    outer loop
      vertex 69.3205 12.2555 53.2382
      vertex 54.8198 15 60
      vertex 67.1092 11.7369 54.2694
    endloop
  endfacet
  facet normal 0.422618 0 0.906308
    outer loop
      vertex 76.2205 -10.6373 50.0207
      vertex 78 -15 49.1909
      vertex 78 -9.21073 49.1909
    endloop
  endfacet
  facet normal 0.422647 1.41424e-05 0.906295
    outer loop
      vertex 76.1578 -10.6875 50.0499
      vertex 78 -15 49.1909
      vertex 76.2205 -10.6373 50.0207
    endloop
  endfacet
  facet normal 0.422568 -2.70246e-05 0.906331
    outer loop
      vertex 76.087 -10.7223 50.083
      vertex 78 -15 49.1909
      vertex 76.1578 -10.6875 50.0499
    endloop
  endfacet
  facet normal 0.422619 1.05367e-06 0.906307
    outer loop
      vertex 74.0217 -11.7369 51.046
      vertex 78 -15 49.1909
      vertex 76.087 -10.7223 50.083
    endloop
  endfacet
  facet normal 0.422618 -3.54989e-07 0.906308
    outer loop
      vertex 71.8104 -12.2555 52.0772
      vertex 78 -15 49.1909
      vertex 74.0217 -11.7369 51.046
    endloop
  endfacet
  facet normal 0.422609 -2.69498e-05 0.906312
    outer loop
      vertex 71.7346 -12.2733 52.1125
      vertex 78 -15 49.1909
      vertex 71.8104 -12.2555 52.0772
    endloop
  endfacet
  facet normal 0.422618 -2.17275e-07 0.906308
    outer loop
      vertex 69.3963 -12.2733 53.2029
      vertex 78 -15 49.1909
      vertex 71.7346 -12.2733 52.1125
    endloop
  endfacet
  facet normal 0.422628 -6.49091e-05 0.906303
    outer loop
      vertex 54.8198 -15 60
      vertex 69.3963 -12.2733 53.2029
      vertex 69.3205 -12.2555 53.2382
    endloop
  endfacet
  facet normal 0.422618 1.51161e-07 0.906308
    outer loop
      vertex 54.8198 -15 60
      vertex 69.3205 -12.2555 53.2382
      vertex 67.1092 -11.7369 54.2694
    endloop
  endfacet
  facet normal 0.422621 -1.27862e-06 0.906306
    outer loop
      vertex 54.8198 -15 60
      vertex 59.6492 -2.64716 57.748
      vertex 59.6252 -2.56582 57.7592
    endloop
  endfacet
  facet normal 0.422618 -0 0.906308
    outer loop
      vertex 54.8198 -15 60
      vertex 59.3808 0 57.8732
      vertex 54.8198 15 60
    endloop
  endfacet
  facet normal 0.422617 3.84813e-07 0.906308
    outer loop
      vertex 59.3808 0 57.8732
      vertex 54.8198 -15 60
      vertex 59.6171 -2.48076 57.763
    endloop
  endfacet
  facet normal 0.422618 4.23134e-07 0.906308
    outer loop
      vertex 69.3963 -12.2733 53.2029
      vertex 54.8198 -15 60
      vertex 78 -15 49.1909
    endloop
  endfacet
  facet normal 0.422618 -8.84925e-09 0.906308
    outer loop
      vertex 65.0439 -10.7223 55.2324
      vertex 54.8198 -15 60
      vertex 67.1092 -11.7369 54.2694
    endloop
  endfacet
  facet normal 0.422626 -2.1393e-05 0.906304
    outer loop
      vertex 64.9731 -10.6875 55.2654
      vertex 54.8198 -15 60
      vertex 65.0439 -10.7223 55.2324
    endloop
  endfacet
  facet normal 0.422601 4.91928e-05 0.906316
    outer loop
      vertex 64.9104 -10.6373 55.2947
      vertex 54.8198 -15 60
      vertex 64.9731 -10.6875 55.2654
    endloop
  endfacet
  facet normal 0.422619 -1.07334e-06 0.906308
    outer loop
      vertex 63.0815 -9.17108 56.1475
      vertex 54.8198 -15 60
      vertex 64.9104 -10.6373 55.2947
    endloop
  endfacet
  facet normal 0.42262 -2.8602e-06 0.906307
    outer loop
      vertex 63.0296 -9.10753 56.1717
      vertex 54.8198 -15 60
      vertex 63.0815 -9.17108 56.1475
    endloop
  endfacet
  facet normal 0.422618 2.76255e-07 0.906308
    outer loop
      vertex 61.5169 -7.2538 56.8771
      vertex 54.8198 -15 60
      vertex 63.0296 -9.10753 56.1717
    endloop
  endfacet
  facet normal 0.422618 3.4123e-07 0.906308
    outer loop
      vertex 60.3865 -5.09356 57.4042
      vertex 54.8198 -15 60
      vertex 61.5169 -7.2538 56.8771
    endloop
  endfacet
  facet normal 0.422646 -1.88167e-05 0.906295
    outer loop
      vertex 60.3478 -5.0195 57.4223
      vertex 54.8198 -15 60
      vertex 60.3865 -5.09356 57.4042
    endloop
  endfacet
  facet normal 0.422617 6.89638e-07 0.906308
    outer loop
      vertex 59.6492 -2.64716 57.748
      vertex 54.8198 -15 60
      vertex 60.3478 -5.0195 57.4223
    endloop
  endfacet
  facet normal 0.422657 -1.83304e-05 0.90629
    outer loop
      vertex 59.6171 -2.48076 57.763
      vertex 54.8198 -15 60
      vertex 59.6252 -2.56582 57.7592
    endloop
  endfacet
  facet normal -1 0 0
    outer loop
      vertex 0 -15 39
      vertex 0 15 60
      vertex 0 15 39
    endloop
  endfacet
  facet normal -1 -0 0
    outer loop
      vertex 0 15 60
      vertex 0 -15 39
      vertex 0 -15 60
    endloop
  endfacet
  facet normal -0 0 1
    outer loop
      vertex 0 15 60
      vertex 54.8198 -15 60
      vertex 54.8198 15 60
    endloop
  endfacet
  facet normal 0 0 1
    outer loop
      vertex 54.8198 -15 60
      vertex 0 15 60
      vertex 0 -15 60
    endloop
  endfacet
  facet normal 1 0 0
    outer loop
      vertex 78 -15 49.1909
      vertex 78 -9 48.7625
      vertex 78 -9.09349 48.9354
    endloop
  endfacet
  facet normal 1 0 0
    outer loop
      vertex 78 -15 49.1909
      vertex 78 -9.09349 48.9354
      vertex 78 -9.1668 49.0709
    endloop
  endfacet
  facet normal 1 -0 0
    outer loop
      vertex 78 -15 49.1909
      vertex 78 -9.1668 49.0709
      vertex 78 -9.21073 49.1909
    endloop
  endfacet
  facet normal 1 0 0
    outer loop
      vertex 78 -9 48.7625
      vertex 78 -15 49.1909
      vertex 78 -15 38.6011
    endloop
  endfacet
  facet normal 1 0 0
    outer loop
      vertex 78 -9 48.7625
      vertex 78 -15 38.6011
      vertex 78 -9 38.6011
    endloop
  endfacet
  facet normal 1 0 0
    outer loop
      vertex 78 9.1668 49.0709
      vertex 78 15 49.1909
      vertex 78 9.21073 49.1909
    endloop
  endfacet
  facet normal 1 0 0
    outer loop
      vertex 78 9.09349 48.9354
      vertex 78 15 49.1909
      vertex 78 9.1668 49.0709
    endloop
  endfacet
  facet normal 1 0 0
    outer loop
      vertex 78 9 48.7625
      vertex 78 15 49.1909
      vertex 78 9.09349 48.9354
    endloop
  endfacet
  facet normal 1 0 0
    outer loop
      vertex 78 15 49.1909
      vertex 78 9 48.7625
      vertex 78 15 38.6011
    endloop
  endfacet
  facet normal 1 0 0
    outer loop
      vertex 78 15 38.6011
      vertex 78 9 48.7625
      vertex 78 9 38.6011
    endloop
  endfacet
  facet normal 0 1 0
    outer loop
      vertex 54.8198 15 60
      vertex 78 15 38.6011
      vertex 31 15 39
    endloop
  endfacet
  facet normal 0 1 -0
    outer loop
      vertex 60 15 0
      vertex 31 15 39
      vertex 78 15 38.6011
    endloop
  endfacet
  facet normal 0 1 0
    outer loop
      vertex 31 15 39
      vertex 60 15 0
      vertex 31 15 0
    endloop
  endfacet
  facet normal 0 1 -0
    outer loop
      vertex 78 15 38.6011
      vertex 54.8198 15 60
      vertex 78 15 49.1909
    endloop
  endfacet
  facet normal 0 1 0
    outer loop
      vertex 54.8198 15 60
      vertex 31 15 39
      vertex 0 15 60
    endloop
  endfacet
  facet normal 0 1 0
    outer loop
      vertex 0 15 60
      vertex 31 15 39
      vertex 0 15 39
    endloop
  endfacet
  facet normal 0 0 -1
    outer loop
      vertex 60 -15 0
      vertex 48.4528 -9 0
      vertex 60 -9 0
    endloop
  endfacet
  facet normal 0 0 -1
    outer loop
      vertex 60 -15 0
      vertex 47.0815 -9.23292 0
      vertex 48.4528 -9 0
    endloop
  endfacet
  facet normal 0 0 -1
    outer loop
      vertex 60 -15 0
      vertex 44.9456 -9.18531 0
      vertex 47.0815 -9.23292 0
    endloop
  endfacet
  facet normal 0 0 -1
    outer loop
      vertex 31 -15 0
      vertex 44.9456 -9.18531 0
      vertex 60 -15 0
    endloop
  endfacet
  facet normal -0 0 -1
    outer loop
      vertex 44.9456 -9.18531 0
      vertex 31 -15 0
      vertex 43.0318 -8.77304 0
    endloop
  endfacet
  facet normal 0 0 -1
    outer loop
      vertex 31 -15 0
      vertex 42.7382 -8.6802 0
      vertex 42.8775 -8.73979 0
    endloop
  endfacet
  facet normal 0 0 -1
    outer loop
      vertex 31 -15 0
      vertex 39.3581 -6.81913 0
      vertex 40.9646 -7.92126 0
    endloop
  endfacet
  facet normal 0 0 -1
    outer loop
      vertex 31 -15 0
      vertex 37.8759 -5.28551 0
      vertex 37.9071 -5.33601 0
    endloop
  endfacet
  facet normal 0 0 -1
    outer loop
      vertex 31 -15 0
      vertex 36.0434 -0.0270225 0
      vertex 36.253 -1.87975 0
    endloop
  endfacet
  facet normal -0 0 -1
    outer loop
      vertex 36.0434 -0.0270225 0
      vertex 31 -15 0
      vertex 36.0403 0 0
    endloop
  endfacet
  facet normal -0 0 -1
    outer loop
      vertex 36.8696 -3.64397 0
      vertex 31 -15 0
      vertex 36.253 -1.87975 0
    endloop
  endfacet
  facet normal -0 0 -1
    outer loop
      vertex 36.8832 -3.68309 0
      vertex 31 -15 0
      vertex 36.8696 -3.64397 0
    endloop
  endfacet
  facet normal -0 0 -1
    outer loop
      vertex 37.8759 -5.28551 0
      vertex 31 -15 0
      vertex 36.8832 -3.68309 0
    endloop
  endfacet
  facet normal -0 0 -1
    outer loop
      vertex 37.9499 -5.38047 0
      vertex 31 -15 0
      vertex 37.9071 -5.33601 0
    endloop
  endfacet
  facet normal -0 0 -1
    outer loop
      vertex 39.2855 -6.76935 0
      vertex 31 -15 0
      vertex 37.9499 -5.38047 0
    endloop
  endfacet
  facet normal -0 0 -1
    outer loop
      vertex 39.3581 -6.81913 0
      vertex 31 -15 0
      vertex 39.2855 -6.76935 0
    endloop
  endfacet
  facet normal -0 0 -1
    outer loop
      vertex 42.7382 -8.6802 0
      vertex 31 -15 0
      vertex 40.9646 -7.92126 0
    endloop
  endfacet
  facet normal -0 0 -1
    outer loop
      vertex 43.0318 -8.77304 0
      vertex 31 -15 0
      vertex 42.8775 -8.73979 0
    endloop
  endfacet
  facet normal 0 0 -1
    outer loop
      vertex 48.4528 9 0
      vertex 60 15 0
      vertex 60 9 0
    endloop
  endfacet
  facet normal 0 0 -1
    outer loop
      vertex 47.0815 9.23292 0
      vertex 60 15 0
      vertex 48.4528 9 0
    endloop
  endfacet
  facet normal 0 0 -1
    outer loop
      vertex 44.9456 9.18531 0
      vertex 60 15 0
      vertex 47.0815 9.23292 0
    endloop
  endfacet
  facet normal 0 0 -1
    outer loop
      vertex 31 15 0
      vertex 44.9456 9.18531 0
      vertex 43.0318 8.77304 0
    endloop
  endfacet
  facet normal 0 0 -1
    outer loop
      vertex 31 15 0
      vertex 43.0318 8.77304 0
      vertex 42.8775 8.73979 0
    endloop
  endfacet
  facet normal 0 0 -1
    outer loop
      vertex 31 15 0
      vertex 42.7382 8.6802 0
      vertex 40.9646 7.92126 0
    endloop
  endfacet
  facet normal 0 0 -1
    outer loop
      vertex 31 15 0
      vertex 39.3581 6.81913 0
      vertex 39.2855 6.76935 0
    endloop
  endfacet
  facet normal 0 0 -1
    outer loop
      vertex 31 15 0
      vertex 37.8759 5.28551 0
      vertex 36.8832 3.68309 0
    endloop
  endfacet
  facet normal 0 0 -1
    outer loop
      vertex 31 15 0
      vertex 36.0434 0.0270225 0
      vertex 36.0403 0 0
    endloop
  endfacet
  facet normal 0 0 -1
    outer loop
      vertex 31 15 0
      vertex 36.0403 0 0
      vertex 31 -15 0
    endloop
  endfacet
  facet normal 0 0 -1
    outer loop
      vertex 44.9456 9.18531 0
      vertex 31 15 0
      vertex 60 15 0
    endloop
  endfacet
  facet normal 0 0 -1
    outer loop
      vertex 42.7382 8.6802 0
      vertex 31 15 0
      vertex 42.8775 8.73979 0
    endloop
  endfacet
  facet normal 0 0 -1
    outer loop
      vertex 39.3581 6.81913 0
      vertex 31 15 0
      vertex 40.9646 7.92126 0
    endloop
  endfacet
  facet normal 0 0 -1
    outer loop
      vertex 37.9499 5.38047 0
      vertex 31 15 0
      vertex 39.2855 6.76935 0
    endloop
  endfacet
  facet normal 0 0 -1
    outer loop
      vertex 37.9071 5.33601 0
      vertex 31 15 0
      vertex 37.9499 5.38047 0
    endloop
  endfacet
  facet normal 0 0 -1
    outer loop
      vertex 37.8759 5.28551 0
      vertex 31 15 0
      vertex 37.9071 5.33601 0
    endloop
  endfacet
  facet normal 0 0 -1
    outer loop
      vertex 36.8696 3.64397 0
      vertex 31 15 0
      vertex 36.8832 3.68309 0
    endloop
  endfacet
  facet normal 0 0 -1
    outer loop
      vertex 36.253 1.87975 0
      vertex 31 15 0
      vertex 36.8696 3.64397 0
    endloop
  endfacet
  facet normal 0 0 -1
    outer loop
      vertex 36.0434 0.0270225 0
      vertex 31 15 0
      vertex 36.253 1.87975 0
    endloop
  endfacet
  facet normal 0 -1 0
    outer loop
      vertex 31 -15 39
      vertex 54.8198 -15 60
      vertex 0 -15 60
    endloop
  endfacet
  facet normal 0 -1 0
    outer loop
      vertex 31 -15 39
      vertex 0 -15 60
      vertex 0 -15 39
    endloop
  endfacet
  facet normal 0 -1 0
    outer loop
      vertex 78 -15 38.6011
      vertex 54.8198 -15 60
      vertex 31 -15 39
    endloop
  endfacet
  facet normal 0 -1 0
    outer loop
      vertex 54.8198 -15 60
      vertex 78 -15 38.6011
      vertex 78 -15 49.1909
    endloop
  endfacet
  facet normal 0 -1 0
    outer loop
      vertex 60 -15 0
      vertex 31 -15 39
      vertex 31 -15 0
    endloop
  endfacet
  facet normal 0 -1 0
    outer loop
      vertex 31 -15 39
      vertex 60 -15 0
      vertex 78 -15 38.6011
    endloop
  endfacet
  facet normal 0.906308 0 -0.422618
    outer loop
      vertex 78 -15 38.6011
      vertex 60 -9 0
      vertex 78 -9 38.6011
    endloop
  endfacet
  facet normal 0.906308 0 -0.422618
    outer loop
      vertex 60 -9 0
      vertex 78 -15 38.6011
      vertex 60 -15 0
    endloop
  endfacet
  facet normal 0.906308 0 -0.422618
    outer loop
      vertex 78 9 38.6011
      vertex 60 15 0
      vertex 78 15 38.6011
    endloop
  endfacet
  facet normal 0.906308 0 -0.422618
    outer loop
      vertex 60 15 0
      vertex 78 9 38.6011
      vertex 60 9 0
    endloop
  endfacet
  facet normal 0 0 -1
    outer loop
      vertex 31 -15 39
      vertex 29.5632 0 39
      vertex 31 15 39
    endloop
  endfacet
  facet normal 0 0 -1
    outer loop
      vertex 31 -15 39
      vertex 29.2499 -2.98109 39
      vertex 29.5632 0 39
    endloop
  endfacet
  facet normal 0 0 -1
    outer loop
      vertex 31 -15 39
      vertex 29.245 -3.02787 39
      vertex 29.2499 -2.98109 39
    endloop
  endfacet
  facet normal 0 0 -1
    outer loop
      vertex 31 -15 39
      vertex 29.2305 -3.0726 39
      vertex 29.245 -3.02787 39
    endloop
  endfacet
  facet normal 0 0 -1
    outer loop
      vertex 31 -15 39
      vertex 28.3042 -5.9234 39
      vertex 29.2305 -3.0726 39
    endloop
  endfacet
  facet normal 0 0 -1
    outer loop
      vertex 31 -15 39
      vertex 28.2807 -5.96414 39
      vertex 28.3042 -5.9234 39
    endloop
  endfacet
  facet normal 0 0 -1
    outer loop
      vertex 31 -15 39
      vertex 26.7819 -8.56005 39
      vertex 28.2807 -5.96414 39
    endloop
  endfacet
  facet normal 0 0 -1
    outer loop
      vertex 31 -15 39
      vertex 24.7762 -10.7876 39
      vertex 26.7819 -8.56005 39
    endloop
  endfacet
  facet normal 0 0 -1
    outer loop
      vertex 31 -15 39
      vertex 24.7447 -10.8226 39
      vertex 24.7762 -10.7876 39
    endloop
  endfacet
  facet normal 0 0 -1
    outer loop
      vertex 31 -15 39
      vertex 24.7067 -10.8502 39
      vertex 24.7447 -10.8226 39
    endloop
  endfacet
  facet normal 0 0 -1
    outer loop
      vertex 31 -15 39
      vertex 22.2816 -12.6121 39
      vertex 24.7067 -10.8502 39
    endloop
  endfacet
  facet normal 0 0 -1
    outer loop
      vertex 31 -15 39
      vertex 19.5433 -13.8313 39
      vertex 22.2816 -12.6121 39
    endloop
  endfacet
  facet normal 0 0 -1
    outer loop
      vertex 31 -15 39
      vertex 19.5003 -13.8505 39
      vertex 19.5433 -13.8313 39
    endloop
  endfacet
  facet normal 0 0 -1
    outer loop
      vertex 31 -15 39
      vertex 19.4543 -13.8602 39
      vertex 19.5003 -13.8505 39
    endloop
  endfacet
  facet normal 0 0 -1
    outer loop
      vertex 31 -15 39
      vertex 16.5223 -14.4835 39
      vertex 19.4543 -13.8602 39
    endloop
  endfacet
  facet normal 0 0 -1
    outer loop
      vertex 31 -15 39
      vertex 13.4777 -14.4835 39
      vertex 16.5223 -14.4835 39
    endloop
  endfacet
  facet normal 0 0 -1
    outer loop
      vertex 0 -15 39
      vertex 10.5457 -13.8602 39
      vertex 13.4777 -14.4835 39
    endloop
  endfacet
  facet normal 0 0 -1
    outer loop
      vertex 0 -15 39
      vertex 10.4567 -13.8313 39
      vertex 10.4997 -13.8505 39
    endloop
  endfacet
  facet normal 0 0 -1
    outer loop
      vertex 0 -15 39
      vertex 5.29335 -10.8502 39
      vertex 7.71838 -12.6121 39
    endloop
  endfacet
  facet normal 0 0 -1
    outer loop
      vertex 0 -15 39
      vertex 1.71934 -5.96414 39
      vertex 3.21809 -8.56005 39
    endloop
  endfacet
  facet normal -0 0 -1
    outer loop
      vertex 0.750089 -2.98109 39
      vertex 0 -15 39
      vertex 0.436764 0 39
    endloop
  endfacet
  facet normal -0 0 -1
    outer loop
      vertex 0.755006 -3.02787 39
      vertex 0 -15 39
      vertex 0.750089 -2.98109 39
    endloop
  endfacet
  facet normal -0 0 -1
    outer loop
      vertex 0.769541 -3.0726 39
      vertex 0 -15 39
      vertex 0.755006 -3.02787 39
    endloop
  endfacet
  facet normal -0 0 -1
    outer loop
      vertex 1.69582 -5.9234 39
      vertex 0 -15 39
      vertex 0.769541 -3.0726 39
    endloop
  endfacet
  facet normal -0 0 -1
    outer loop
      vertex 1.71934 -5.96414 39
      vertex 0 -15 39
      vertex 1.69582 -5.9234 39
    endloop
  endfacet
  facet normal -0 0 -1
    outer loop
      vertex 5.22382 -10.7876 39
      vertex 0 -15 39
      vertex 3.21809 -8.56005 39
    endloop
  endfacet
  facet normal -0 0 -1
    outer loop
      vertex 5.25529 -10.8226 39
      vertex 0 -15 39
      vertex 5.22382 -10.7876 39
    endloop
  endfacet
  facet normal -0 0 -1
    outer loop
      vertex 5.29335 -10.8502 39
      vertex 0 -15 39
      vertex 5.25529 -10.8226 39
    endloop
  endfacet
  facet normal -0 0 -1
    outer loop
      vertex 10.4567 -13.8313 39
      vertex 0 -15 39
      vertex 7.71838 -12.6121 39
    endloop
  endfacet
  facet normal -0 0 -1
    outer loop
      vertex 10.5457 -13.8602 39
      vertex 0 -15 39
      vertex 10.4997 -13.8505 39
    endloop
  endfacet
  facet normal 0 0 -1
    outer loop
      vertex 0 -15 39
      vertex 13.4777 -14.4835 39
      vertex 31 -15 39
    endloop
  endfacet
  facet normal 0 0 -1
    outer loop
      vertex 29.2499 2.98109 39
      vertex 31 15 39
      vertex 29.5632 0 39
    endloop
  endfacet
  facet normal 0 0 -1
    outer loop
      vertex 29.245 3.02787 39
      vertex 31 15 39
      vertex 29.2499 2.98109 39
    endloop
  endfacet
  facet normal 0 0 -1
    outer loop
      vertex 29.2305 3.0726 39
      vertex 31 15 39
      vertex 29.245 3.02787 39
    endloop
  endfacet
  facet normal 0 0 -1
    outer loop
      vertex 28.3042 5.9234 39
      vertex 31 15 39
      vertex 29.2305 3.0726 39
    endloop
  endfacet
  facet normal 0 0 -1
    outer loop
      vertex 28.2807 5.96414 39
      vertex 31 15 39
      vertex 28.3042 5.9234 39
    endloop
  endfacet
  facet normal 0 0 -1
    outer loop
      vertex 26.7819 8.56005 39
      vertex 31 15 39
      vertex 28.2807 5.96414 39
    endloop
  endfacet
  facet normal 0 0 -1
    outer loop
      vertex 24.7762 10.7876 39
      vertex 31 15 39
      vertex 26.7819 8.56005 39
    endloop
  endfacet
  facet normal 0 0 -1
    outer loop
      vertex 24.7447 10.8226 39
      vertex 31 15 39
      vertex 24.7762 10.7876 39
    endloop
  endfacet
  facet normal 0 0 -1
    outer loop
      vertex 24.7067 10.8502 39
      vertex 31 15 39
      vertex 24.7447 10.8226 39
    endloop
  endfacet
  facet normal 0 0 -1
    outer loop
      vertex 22.2816 12.6121 39
      vertex 31 15 39
      vertex 24.7067 10.8502 39
    endloop
  endfacet
  facet normal 0 0 -1
    outer loop
      vertex 19.5433 13.8313 39
      vertex 31 15 39
      vertex 22.2816 12.6121 39
    endloop
  endfacet
  facet normal 0 0 -1
    outer loop
      vertex 19.5003 13.8505 39
      vertex 31 15 39
      vertex 19.5433 13.8313 39
    endloop
  endfacet
  facet normal 0 0 -1
    outer loop
      vertex 19.4543 13.8602 39
      vertex 31 15 39
      vertex 19.5003 13.8505 39
    endloop
  endfacet
  facet normal 0 0 -1
    outer loop
      vertex 16.5223 14.4835 39
      vertex 31 15 39
      vertex 19.4543 13.8602 39
    endloop
  endfacet
  facet normal 0 0 -1
    outer loop
      vertex 13.4777 14.4835 39
      vertex 31 15 39
      vertex 16.5223 14.4835 39
    endloop
  endfacet
  facet normal 0 0 -1
    outer loop
      vertex 0 15 39
      vertex 10.5457 13.8602 39
      vertex 10.4997 13.8505 39
    endloop
  endfacet
  facet normal 0 0 -1
    outer loop
      vertex 0 15 39
      vertex 10.4567 13.8313 39
      vertex 7.71838 12.6121 39
    endloop
  endfacet
  facet normal 0 0 -1
    outer loop
      vertex 0 15 39
      vertex 5.29335 10.8502 39
      vertex 5.25529 10.8226 39
    endloop
  endfacet
  facet normal 0 0 -1
    outer loop
      vertex 0 15 39
      vertex 1.71934 5.96414 39
      vertex 1.69582 5.9234 39
    endloop
  endfacet
  facet normal 0 0 -1
    outer loop
      vertex 13.4777 14.4835 39
      vertex 0 15 39
      vertex 31 15 39
    endloop
  endfacet
  facet normal 0 0 -1
    outer loop
      vertex 10.5457 13.8602 39
      vertex 0 15 39
      vertex 13.4777 14.4835 39
    endloop
  endfacet
  facet normal 0 0 -1
    outer loop
      vertex 10.4567 13.8313 39
      vertex 0 15 39
      vertex 10.4997 13.8505 39
    endloop
  endfacet
  facet normal 0 0 -1
    outer loop
      vertex 5.29335 10.8502 39
      vertex 0 15 39
      vertex 7.71838 12.6121 39
    endloop
  endfacet
  facet normal 0 0 -1
    outer loop
      vertex 5.22382 10.7876 39
      vertex 0 15 39
      vertex 5.25529 10.8226 39
    endloop
  endfacet
  facet normal 0 0 -1
    outer loop
      vertex 3.21809 8.56005 39
      vertex 0 15 39
      vertex 5.22382 10.7876 39
    endloop
  endfacet
  facet normal 0 0 -1
    outer loop
      vertex 1.71934 5.96414 39
      vertex 0 15 39
      vertex 3.21809 8.56005 39
    endloop
  endfacet
  facet normal 0 0 -1
    outer loop
      vertex 0.769541 3.0726 39
      vertex 0 15 39
      vertex 1.69582 5.9234 39
    endloop
  endfacet
  facet normal 0 0 -1
    outer loop
      vertex 0.755006 3.02787 39
      vertex 0 15 39
      vertex 0.769541 3.0726 39
    endloop
  endfacet
  facet normal 0 0 -1
    outer loop
      vertex 0.750089 2.98109 39
      vertex 0 15 39
      vertex 0.755006 3.02787 39
    endloop
  endfacet
  facet normal 0 0 -1
    outer loop
      vertex 0.436764 0 39
      vertex 0 15 39
      vertex 0.750089 2.98109 39
    endloop
  endfacet
  facet normal 0 0 -1
    outer loop
      vertex 0 15 39
      vertex 0.436764 0 39
      vertex 0 -15 39
    endloop
  endfacet
  facet normal -1 0 0
    outer loop
      vertex 31 -15 0
      vertex 31 15 39
      vertex 31 15 0
    endloop
  endfacet
  facet normal -1 -0 0
    outer loop
      vertex 31 15 39
      vertex 31 -15 0
      vertex 31 -15 39
    endloop
  endfacet
  facet normal 0.20585 -0.968451 -0.140459
    outer loop
      vertex 16.5223 -14.4835 39
      vertex 15.9408 -8.9507 0
      vertex 19.4543 -13.8602 39
    endloop
  endfacet
  facet normal 0.984663 0.103492 -0.140459
    outer loop
      vertex 29.5632 0 39
      vertex 24 0 0
      vertex 29.2499 2.98109 39
    endloop
  endfacet
  facet normal 0.984662 0.1035 -0.140459
    outer loop
      vertex 29.2499 2.98109 39
      vertex 23.8033 1.8712 0
      vertex 29.245 3.02787 39
    endloop
  endfacet
  facet normal 0.984663 0.103493 -0.140459
    outer loop
      vertex 23.8033 1.8712 0
      vertex 29.2499 2.98109 39
      vertex 24 0 0
    endloop
  endfacet
  facet normal 0.941628 -0.305954 -0.140459
    outer loop
      vertex 28.3042 -5.9234 39
      vertex 23.2219 -3.66063 0
      vertex 29.2305 -3.0726 39
    endloop
  endfacet
  facet normal -0.941628 -0.305953 -0.140459
    outer loop
      vertex 6.77809 -3.66063 0
      vertex 0.755006 -3.02787 39
      vertex 6.19667 -1.8712 0
    endloop
  endfacet
  facet normal -0.941628 -0.305953 -0.140459
    outer loop
      vertex 0.755006 -3.02787 39
      vertex 6.77809 -3.66063 0
      vertex 0.769541 -3.0726 39
    endloop
  endfacet
  facet normal -0.85744 0.495043 -0.140459
    outer loop
      vertex 7.71885 5.29007 0
      vertex 1.71934 5.96414 39
      vertex 3.21809 8.56005 39
    endloop
  endfacet
  facet normal 0.735778 -0.662497 -0.140459
    outer loop
      vertex 24.7762 -10.7876 39
      vertex 22.2812 -5.29007 0
      vertex 26.7819 -8.56005 39
    endloop
  endfacet
  facet normal 0.581958 -0.800997 -0.140459
    outer loop
      vertex 22.2816 -12.6121 39
      vertex 19.5 -7.79423 0
      vertex 24.7067 -10.8502 39
    endloop
  endfacet
  facet normal 0.402704 -0.904489 -0.140459
    outer loop
      vertex 19.5 -7.79423 0
      vertex 19.5003 -13.8505 39
      vertex 17.7812 -8.55951 0
    endloop
  endfacet
  facet normal 0.402719 -0.904483 -0.140458
    outer loop
      vertex 19.5003 -13.8505 39
      vertex 19.5 -7.79423 0
      vertex 19.5433 -13.8313 39
    endloop
  endfacet
  facet normal -0.205851 0.968451 -0.140459
    outer loop
      vertex 14.0592 8.9507 0
      vertex 10.5457 13.8602 39
      vertex 13.4777 14.4835 39
    endloop
  endfacet
  facet normal 0.85744 -0.495043 -0.140459
    outer loop
      vertex 28.3042 -5.9234 39
      vertex 22.2812 -5.29007 0
      vertex 23.2219 -3.66063 0
    endloop
  endfacet
  facet normal 0.857433 -0.495055 -0.140458
    outer loop
      vertex 22.2812 -5.29007 0
      vertex 28.3042 -5.9234 39
      vertex 28.2807 -5.96414 39
    endloop
  endfacet
  facet normal 0.984663 -0.103492 -0.140459
    outer loop
      vertex 29.2499 -2.98109 39
      vertex 24 0 0
      vertex 29.5632 0 39
    endloop
  endfacet
  facet normal 0.85744 -0.495043 -0.140459
    outer loop
      vertex 26.7819 -8.56005 39
      vertex 22.2812 -5.29007 0
      vertex 28.2807 -5.96414 39
    endloop
  endfacet
  facet normal -0.735778 0.662497 -0.140459
    outer loop
      vertex 7.71885 5.29007 0
      vertex 3.21809 8.56005 39
      vertex 5.22382 10.7876 39
    endloop
  endfacet
  facet normal 0.941626 -0.305961 -0.140459
    outer loop
      vertex 23.2219 -3.66063 0
      vertex 29.245 -3.02787 39
      vertex 29.2305 -3.0726 39
    endloop
  endfacet
  facet normal 0.941628 -0.305953 -0.140459
    outer loop
      vertex 29.245 -3.02787 39
      vertex 23.2219 -3.66063 0
      vertex 23.8033 -1.8712 0
    endloop
  endfacet
  facet normal 0.402704 -0.904489 -0.140459
    outer loop
      vertex 19.5433 -13.8313 39
      vertex 19.5 -7.79423 0
      vertex 22.2816 -12.6121 39
    endloop
  endfacet
  facet normal 0.205851 -0.968451 -0.140459
    outer loop
      vertex 17.7812 -8.55951 0
      vertex 19.4543 -13.8602 39
      vertex 15.9408 -8.9507 0
    endloop
  endfacet
  facet normal 0.205839 -0.968453 -0.140459
    outer loop
      vertex 19.4543 -13.8602 39
      vertex 17.7812 -8.55951 0
      vertex 19.5003 -13.8505 39
    endloop
  endfacet
  facet normal 0.735778 -0.662497 -0.140459
    outer loop
      vertex 24.7762 -10.7876 39
      vertex 21.0222 -6.6883 0
      vertex 22.2812 -5.29007 0
    endloop
  endfacet
  facet normal 0.735772 -0.662504 -0.140459
    outer loop
      vertex 21.0222 -6.6883 0
      vertex 24.7762 -10.7876 39
      vertex 24.7447 -10.8226 39
    endloop
  endfacet
  facet normal 0.581958 -0.800997 -0.140459
    outer loop
      vertex 21.0222 -6.6883 0
      vertex 24.7067 -10.8502 39
      vertex 19.5 -7.79423 0
    endloop
  endfacet
  facet normal 0.581965 -0.800992 -0.140459
    outer loop
      vertex 24.7067 -10.8502 39
      vertex 21.0222 -6.6883 0
      vertex 24.7447 -10.8226 39
    endloop
  endfacet
  facet normal -0.85744 -0.495043 -0.140459
    outer loop
      vertex 3.21809 -8.56005 39
      vertex 1.71934 -5.96414 39
      vertex 7.71885 -5.29007 0
    endloop
  endfacet
  facet normal -0.941628 -0.305954 -0.140459
    outer loop
      vertex 1.69582 -5.9234 39
      vertex 0.769541 -3.0726 39
      vertex 6.77809 -3.66063 0
    endloop
  endfacet
  facet normal -0.581955 -0.800999 -0.140459
    outer loop
      vertex 8.97782 -6.6883 0
      vertex 5.29335 -10.8502 39
      vertex 5.25529 -10.8226 39
    endloop
  endfacet
  facet normal -0.581958 -0.800997 -0.140459
    outer loop
      vertex 5.29335 -10.8502 39
      vertex 8.97782 -6.6883 0
      vertex 10.5 -7.79423 0
    endloop
  endfacet
  facet normal -0.402704 -0.904489 -0.140459
    outer loop
      vertex 10.4567 -13.8313 39
      vertex 7.71838 -12.6121 39
      vertex 10.5 -7.79423 0
    endloop
  endfacet
  facet normal 0.941626 0.305961 -0.140459
    outer loop
      vertex 29.245 3.02787 39
      vertex 23.2219 3.66063 0
      vertex 29.2305 3.0726 39
    endloop
  endfacet
  facet normal 0.941628 0.305953 -0.140459
    outer loop
      vertex 23.2219 3.66063 0
      vertex 29.245 3.02787 39
      vertex 23.8033 1.8712 0
    endloop
  endfacet
  facet normal -0.984663 0.103492 -0.140459
    outer loop
      vertex 6.19667 1.8712 0
      vertex 0.750089 2.98109 39
      vertex 0.755006 3.02787 39
    endloop
  endfacet
  facet normal -0.984663 0.103492 -0.140459
    outer loop
      vertex 0.750089 2.98109 39
      vertex 6.19667 1.8712 0
      vertex 6 0 0
    endloop
  endfacet
  facet normal -0.735777 0.662498 -0.140459
    outer loop
      vertex 8.97782 6.6883 0
      vertex 5.22382 10.7876 39
      vertex 5.25529 10.8226 39
    endloop
  endfacet
  facet normal -0.735778 0.662497 -0.140459
    outer loop
      vertex 5.22382 10.7876 39
      vertex 8.97782 6.6883 0
      vertex 7.71885 5.29007 0
    endloop
  endfacet
  facet normal 0.984663 -0.103493 -0.140459
    outer loop
      vertex 29.2499 -2.98109 39
      vertex 23.8033 -1.8712 0
      vertex 24 0 0
    endloop
  endfacet
  facet normal 0.984662 -0.1035 -0.140459
    outer loop
      vertex 23.8033 -1.8712 0
      vertex 29.2499 -2.98109 39
      vertex 29.245 -3.02787 39
    endloop
  endfacet
  facet normal -0.85744 -0.495043 -0.140459
    outer loop
      vertex 7.71885 -5.29007 0
      vertex 1.69582 -5.9234 39
      vertex 6.77809 -3.66063 0
    endloop
  endfacet
  facet normal -0.857439 -0.495045 -0.140459
    outer loop
      vertex 1.69582 -5.9234 39
      vertex 7.71885 -5.29007 0
      vertex 1.71934 -5.96414 39
    endloop
  endfacet
  facet normal -0.205851 -0.968451 -0.140459
    outer loop
      vertex 13.4777 -14.4835 39
      vertex 10.5457 -13.8602 39
      vertex 14.0592 -8.9507 0
    endloop
  endfacet
  facet normal -0.581958 -0.800997 -0.140459
    outer loop
      vertex 7.71838 -12.6121 39
      vertex 5.29335 -10.8502 39
      vertex 10.5 -7.79423 0
    endloop
  endfacet
  facet normal 0 0.990086 -0.140459
    outer loop
      vertex 15.9408 8.9507 0
      vertex 13.4777 14.4835 39
      vertex 16.5223 14.4835 39
    endloop
  endfacet
  facet normal 0 0.990086 -0.140459
    outer loop
      vertex 13.4777 14.4835 39
      vertex 15.9408 8.9507 0
      vertex 14.0592 8.9507 0
    endloop
  endfacet
  facet normal 0.85744 0.495043 -0.140459
    outer loop
      vertex 28.2807 5.96414 39
      vertex 22.2812 5.29007 0
      vertex 26.7819 8.56005 39
    endloop
  endfacet
  facet normal 0.941628 0.305954 -0.140459
    outer loop
      vertex 29.2305 3.0726 39
      vertex 23.2219 3.66063 0
      vertex 28.3042 5.9234 39
    endloop
  endfacet
  facet normal 0.205839 0.968453 -0.140459
    outer loop
      vertex 17.7812 8.55951 0
      vertex 19.4543 13.8602 39
      vertex 19.5003 13.8505 39
    endloop
  endfacet
  facet normal 0.205851 0.968451 -0.140459
    outer loop
      vertex 19.4543 13.8602 39
      vertex 17.7812 8.55951 0
      vertex 15.9408 8.9507 0
    endloop
  endfacet
  facet normal 0.20585 0.968451 -0.140459
    outer loop
      vertex 19.4543 13.8602 39
      vertex 15.9408 8.9507 0
      vertex 16.5223 14.4835 39
    endloop
  endfacet
  facet normal 0.581958 0.800997 -0.140459
    outer loop
      vertex 24.7067 10.8502 39
      vertex 19.5 7.79423 0
      vertex 22.2816 12.6121 39
    endloop
  endfacet
  facet normal 0 0 -1
    outer loop
      vertex 23.8033 -1.8712 0
      vertex 23.8033 1.8712 0
      vertex 24 0 0
    endloop
  endfacet
  facet normal 0 0 -1
    outer loop
      vertex 23.2219 -3.66063 0
      vertex 23.8033 1.8712 0
      vertex 23.8033 -1.8712 0
    endloop
  endfacet
  facet normal 0 0 -1
    outer loop
      vertex 23.2219 -3.66063 0
      vertex 23.2219 3.66063 0
      vertex 23.8033 1.8712 0
    endloop
  endfacet
  facet normal 0 0 -1
    outer loop
      vertex 22.2812 -5.29007 0
      vertex 23.2219 3.66063 0
      vertex 23.2219 -3.66063 0
    endloop
  endfacet
  facet normal 0 0 -1
    outer loop
      vertex 22.2812 -5.29007 0
      vertex 22.2812 5.29007 0
      vertex 23.2219 3.66063 0
    endloop
  endfacet
  facet normal 0 0 -1
    outer loop
      vertex 21.0222 -6.6883 0
      vertex 22.2812 5.29007 0
      vertex 22.2812 -5.29007 0
    endloop
  endfacet
  facet normal 0 0 -1
    outer loop
      vertex 21.0222 -6.6883 0
      vertex 21.0222 6.6883 0
      vertex 22.2812 5.29007 0
    endloop
  endfacet
  facet normal 0 0 -1
    outer loop
      vertex 19.5 -7.79423 0
      vertex 21.0222 6.6883 0
      vertex 21.0222 -6.6883 0
    endloop
  endfacet
  facet normal 0 0 -1
    outer loop
      vertex 19.5 -7.79423 0
      vertex 19.5 7.79423 0
      vertex 21.0222 6.6883 0
    endloop
  endfacet
  facet normal 0 0 -1
    outer loop
      vertex 17.7812 -8.55951 0
      vertex 19.5 7.79423 0
      vertex 19.5 -7.79423 0
    endloop
  endfacet
  facet normal 0 0 -1
    outer loop
      vertex 17.7812 -8.55951 0
      vertex 17.7812 8.55951 0
      vertex 19.5 7.79423 0
    endloop
  endfacet
  facet normal 0 0 -1
    outer loop
      vertex 15.9408 -8.9507 0
      vertex 17.7812 8.55951 0
      vertex 17.7812 -8.55951 0
    endloop
  endfacet
  facet normal 0 0 -1
    outer loop
      vertex 15.9408 -8.9507 0
      vertex 15.9408 8.9507 0
      vertex 17.7812 8.55951 0
    endloop
  endfacet
  facet normal 0 0 -1
    outer loop
      vertex 14.0592 -8.9507 0
      vertex 15.9408 8.9507 0
      vertex 15.9408 -8.9507 0
    endloop
  endfacet
  facet normal 0 0 -1
    outer loop
      vertex 14.0592 -8.9507 0
      vertex 14.0592 8.9507 0
      vertex 15.9408 8.9507 0
    endloop
  endfacet
  facet normal 0 0 -1
    outer loop
      vertex 12.2188 -8.55951 0
      vertex 14.0592 8.9507 0
      vertex 14.0592 -8.9507 0
    endloop
  endfacet
  facet normal 0 0 -1
    outer loop
      vertex 12.2188 -8.55951 0
      vertex 12.2188 8.55951 0
      vertex 14.0592 8.9507 0
    endloop
  endfacet
  facet normal 0 0 -1
    outer loop
      vertex 12.2188 -8.55951 0
      vertex 10.5 7.79423 0
      vertex 12.2188 8.55951 0
    endloop
  endfacet
  facet normal 0 0 -1
    outer loop
      vertex 10.5 -7.79423 0
      vertex 10.5 7.79423 0
      vertex 12.2188 -8.55951 0
    endloop
  endfacet
  facet normal 0 0 -1
    outer loop
      vertex 8.97782 -6.6883 0
      vertex 10.5 7.79423 0
      vertex 10.5 -7.79423 0
    endloop
  endfacet
  facet normal 0 0 -1
    outer loop
      vertex 8.97782 -6.6883 0
      vertex 8.97782 6.6883 0
      vertex 10.5 7.79423 0
    endloop
  endfacet
  facet normal 0 0 -1
    outer loop
      vertex 7.71885 -5.29007 0
      vertex 8.97782 6.6883 0
      vertex 8.97782 -6.6883 0
    endloop
  endfacet
  facet normal 0 0 -1
    outer loop
      vertex 7.71885 -5.29007 0
      vertex 7.71885 5.29007 0
      vertex 8.97782 6.6883 0
    endloop
  endfacet
  facet normal 0 0 -1
    outer loop
      vertex 6.77809 -3.66063 0
      vertex 7.71885 5.29007 0
      vertex 7.71885 -5.29007 0
    endloop
  endfacet
  facet normal 0 0 -1
    outer loop
      vertex 6.77809 -3.66063 0
      vertex 6.77809 3.66063 0
      vertex 7.71885 5.29007 0
    endloop
  endfacet
  facet normal 0 0 -1
    outer loop
      vertex 6.19667 -1.8712 0
      vertex 6.77809 3.66063 0
      vertex 6.77809 -3.66063 0
    endloop
  endfacet
  facet normal 0 0 -1
    outer loop
      vertex 6.19667 -1.8712 0
      vertex 6.19667 1.8712 0
      vertex 6.77809 3.66063 0
    endloop
  endfacet
  facet normal 0 -0 -1
    outer loop
      vertex 6.19667 1.8712 0
      vertex 6.19667 -1.8712 0
      vertex 6 0 0
    endloop
  endfacet
  facet normal -0.941628 0.305953 -0.140459
    outer loop
      vertex 6.77809 3.66063 0
      vertex 0.755006 3.02787 39
      vertex 0.769541 3.0726 39
    endloop
  endfacet
  facet normal -0.941628 0.305953 -0.140459
    outer loop
      vertex 0.755006 3.02787 39
      vertex 6.77809 3.66063 0
      vertex 6.19667 1.8712 0
    endloop
  endfacet
  facet normal -0.984663 -0.103492 -0.140459
    outer loop
      vertex 6.19667 -1.8712 0
      vertex 0.750089 -2.98109 39
      vertex 6 0 0
    endloop
  endfacet
  facet normal -0.984663 -0.103492 -0.140459
    outer loop
      vertex 0.750089 -2.98109 39
      vertex 6.19667 -1.8712 0
      vertex 0.755006 -3.02787 39
    endloop
  endfacet
  facet normal -0.735778 -0.662497 -0.140459
    outer loop
      vertex 8.97782 -6.6883 0
      vertex 5.22382 -10.7876 39
      vertex 7.71885 -5.29007 0
    endloop
  endfacet
  facet normal -0.735777 -0.662498 -0.140459
    outer loop
      vertex 5.22382 -10.7876 39
      vertex 8.97782 -6.6883 0
      vertex 5.25529 -10.8226 39
    endloop
  endfacet
  facet normal -0.735778 -0.662497 -0.140459
    outer loop
      vertex 5.22382 -10.7876 39
      vertex 3.21809 -8.56005 39
      vertex 7.71885 -5.29007 0
    endloop
  endfacet
  facet normal 0 -0.990086 -0.140459
    outer loop
      vertex 14.0592 -8.9507 0
      vertex 16.5223 -14.4835 39
      vertex 13.4777 -14.4835 39
    endloop
  endfacet
  facet normal 0 -0.990086 -0.140459
    outer loop
      vertex 16.5223 -14.4835 39
      vertex 14.0592 -8.9507 0
      vertex 15.9408 -8.9507 0
    endloop
  endfacet
  facet normal -0.205835 -0.968454 -0.140459
    outer loop
      vertex 12.2188 -8.55951 0
      vertex 10.5457 -13.8602 39
      vertex 10.4997 -13.8505 39
    endloop
  endfacet
  facet normal -0.205851 -0.968451 -0.140459
    outer loop
      vertex 10.5457 -13.8602 39
      vertex 12.2188 -8.55951 0
      vertex 14.0592 -8.9507 0
    endloop
  endfacet
  facet normal -0.402712 -0.904486 -0.140459
    outer loop
      vertex 10.5 -7.79423 0
      vertex 10.4997 -13.8505 39
      vertex 10.4567 -13.8313 39
    endloop
  endfacet
  facet normal -0.402704 -0.904489 -0.140459
    outer loop
      vertex 10.4997 -13.8505 39
      vertex 10.5 -7.79423 0
      vertex 12.2188 -8.55951 0
    endloop
  endfacet
  facet normal 0.857433 0.495055 -0.140458
    outer loop
      vertex 28.3042 5.9234 39
      vertex 22.2812 5.29007 0
      vertex 28.2807 5.96414 39
    endloop
  endfacet
  facet normal 0.85744 0.495043 -0.140459
    outer loop
      vertex 22.2812 5.29007 0
      vertex 28.3042 5.9234 39
      vertex 23.2219 3.66063 0
    endloop
  endfacet
  facet normal 0.581965 0.800992 -0.140459
    outer loop
      vertex 21.0222 6.6883 0
      vertex 24.7067 10.8502 39
      vertex 24.7447 10.8226 39
    endloop
  endfacet
  facet normal 0.581958 0.800997 -0.140459
    outer loop
      vertex 24.7067 10.8502 39
      vertex 21.0222 6.6883 0
      vertex 19.5 7.79423 0
    endloop
  endfacet
  facet normal 0.402719 0.904483 -0.140458
    outer loop
      vertex 19.5 7.79423 0
      vertex 19.5003 13.8505 39
      vertex 19.5433 13.8313 39
    endloop
  endfacet
  facet normal 0.402704 0.904489 -0.140459
    outer loop
      vertex 19.5003 13.8505 39
      vertex 19.5 7.79423 0
      vertex 17.7812 8.55951 0
    endloop
  endfacet
  facet normal 0.402704 0.904489 -0.140459
    outer loop
      vertex 22.2816 12.6121 39
      vertex 19.5 7.79423 0
      vertex 19.5433 13.8313 39
    endloop
  endfacet
  facet normal -0.941628 0.305954 -0.140459
    outer loop
      vertex 6.77809 3.66063 0
      vertex 0.769541 3.0726 39
      vertex 1.69582 5.9234 39
    endloop
  endfacet
  facet normal -0.857439 0.495045 -0.140459
    outer loop
      vertex 7.71885 5.29007 0
      vertex 1.69582 5.9234 39
      vertex 1.71934 5.96414 39
    endloop
  endfacet
  facet normal -0.85744 0.495043 -0.140459
    outer loop
      vertex 1.69582 5.9234 39
      vertex 7.71885 5.29007 0
      vertex 6.77809 3.66063 0
    endloop
  endfacet
  facet normal -0.984663 -0.103492 -0.140459
    outer loop
      vertex 0.750089 -2.98109 39
      vertex 0.436764 0 39
      vertex 6 0 0
    endloop
  endfacet
  facet normal -0.984663 0.103492 -0.140459
    outer loop
      vertex 6 0 0
      vertex 0.436764 0 39
      vertex 0.750089 2.98109 39
    endloop
  endfacet
  facet normal -0.581958 0.800997 -0.140459
    outer loop
      vertex 8.97782 6.6883 0
      vertex 5.29335 10.8502 39
      vertex 10.5 7.79423 0
    endloop
  endfacet
  facet normal -0.581955 0.800999 -0.140459
    outer loop
      vertex 5.29335 10.8502 39
      vertex 8.97782 6.6883 0
      vertex 5.25529 10.8226 39
    endloop
  endfacet
  facet normal -0.402704 0.904489 -0.140459
    outer loop
      vertex 10.5 7.79423 0
      vertex 7.71838 12.6121 39
      vertex 10.4567 13.8313 39
    endloop
  endfacet
  facet normal -0.581958 0.800997 -0.140459
    outer loop
      vertex 10.5 7.79423 0
      vertex 5.29335 10.8502 39
      vertex 7.71838 12.6121 39
    endloop
  endfacet
  facet normal -0.402704 0.904489 -0.140459
    outer loop
      vertex 10.5 7.79423 0
      vertex 10.4997 13.8505 39
      vertex 12.2188 8.55951 0
    endloop
  endfacet
  facet normal -0.402712 0.904486 -0.140459
    outer loop
      vertex 10.4997 13.8505 39
      vertex 10.5 7.79423 0
      vertex 10.4567 13.8313 39
    endloop
  endfacet
  facet normal -0.205851 0.968451 -0.140459
    outer loop
      vertex 12.2188 8.55951 0
      vertex 10.5457 13.8602 39
      vertex 14.0592 8.9507 0
    endloop
  endfacet
  facet normal -0.205835 0.968454 -0.140459
    outer loop
      vertex 10.5457 13.8602 39
      vertex 12.2188 8.55951 0
      vertex 10.4997 13.8505 39
    endloop
  endfacet
  facet normal 0.735772 0.662504 -0.140459
    outer loop
      vertex 24.7762 10.7876 39
      vertex 21.0222 6.6883 0
      vertex 24.7447 10.8226 39
    endloop
  endfacet
  facet normal 0.735778 0.662497 -0.140459
    outer loop
      vertex 21.0222 6.6883 0
      vertex 24.7762 10.7876 39
      vertex 22.2812 5.29007 0
    endloop
  endfacet
  facet normal 0.735778 0.662497 -0.140459
    outer loop
      vertex 26.7819 8.56005 39
      vertex 22.2812 5.29007 0
      vertex 24.7762 10.7876 39
    endloop
  endfacet
endsolid OpenSCAD_Model
